<svg width="20" height="21" viewBox="0 0 20 21" fill="none" xmlns="http://www.w3.org/2000/svg">
<rect width="20" height="21" fill="#1E1E1E"/>
<g id="About Us Page - Laptop" clip-path="url(#clip0_45_2)">
<rect width="1440" height="4931" transform="translate(-121 -3714)" fill="#141414"/>
<g id="Container">
<g id="Sub Container">
<g id="Container_2">
<g id="Card" filter="url(#filter0_d_45_2)">
<rect x="-40" y="-137" width="619.5" height="415" rx="12" fill="#141414"/>
<rect x="-39.5" y="-136.5" width="618.5" height="414" rx="11.5" stroke="#262626"/>
<g id="Container_3">
<g id="Sub Container_2">
<g id="Container_4">
<g id="Icon">
<g id="Vector">
<path d="M3.125 5.5C3.125 4.46447 3.96447 3.625 5 3.625H6.875C7.91053 3.625 8.75 4.46447 8.75 5.5V7.375C8.75 8.41053 7.91053 9.25 6.875 9.25H5C3.96447 9.25 3.125 8.41053 3.125 7.375V5.5Z" stroke="#999999" stroke-linecap="round" stroke-linejoin="round"/>
<path d="M3.125 13.625C3.125 12.5895 3.96447 11.75 5 11.75H6.875C7.91053 11.75 8.75 12.5895 8.75 13.625V15.5C8.75 16.5355 7.91053 17.375 6.875 17.375H5C3.96447 17.375 3.125 16.5355 3.125 15.5V13.625Z" stroke="#999999" stroke-linecap="round" stroke-linejoin="round"/>
<path d="M11.25 5.5C11.25 4.46447 12.0895 3.625 13.125 3.625H15C16.0355 3.625 16.875 4.46447 16.875 5.5V7.375C16.875 8.41053 16.0355 9.25 15 9.25H13.125C12.0895 9.25 11.25 8.41053 11.25 7.375V5.5Z" stroke="#999999" stroke-linecap="round" stroke-linejoin="round"/>
<path d="M11.25 13.625C11.25 12.5895 12.0895 11.75 13.125 11.75H15C16.0355 11.75 16.875 12.5895 16.875 13.625V15.5C16.875 16.5355 16.0355 17.375 15 17.375H13.125C12.0895 17.375 11.25 16.5355 11.25 15.5V13.625Z" stroke="#999999" stroke-linecap="round" stroke-linejoin="round"/>
</g>
</g>
</g>
</g>
</g>
</g>
</g>
</g>
</g>
</g>
<defs>
<filter id="filter0_d_45_2" x="-48" y="-145" width="635.5" height="431" filterUnits="userSpaceOnUse" color-interpolation-filters="sRGB">
<feFlood flood-opacity="0" result="BackgroundImageFix"/>
<feColorMatrix in="SourceAlpha" type="matrix" values="0 0 0 0 0 0 0 0 0 0 0 0 0 0 0 0 0 0 127 0" result="hardAlpha"/>
<feMorphology radius="8" operator="dilate" in="SourceAlpha" result="effect1_dropShadow_45_2"/>
<feOffset/>
<feComposite in2="hardAlpha" operator="out"/>
<feColorMatrix type="matrix" values="0 0 0 0 0.0980392 0 0 0 0 0.0980392 0 0 0 0 0.0980392 0 0 0 1 0"/>
<feBlend mode="normal" in2="BackgroundImageFix" result="effect1_dropShadow_45_2"/>
<feBlend mode="normal" in="SourceGraphic" in2="effect1_dropShadow_45_2" result="shape"/>
</filter>
<clipPath id="clip0_45_2">
<rect width="1440" height="4931" fill="white" transform="translate(-121 -3714)"/>
</clipPath>
</defs>
</svg>
