<svg width="398" height="217" viewBox="0 0 398 217" fill="none" xmlns="http://www.w3.org/2000/svg">
<g clip-path="url(#clip0_181_1072)">
<path fill-rule="evenodd" clip-rule="evenodd" d="M300.585 3.28401C300.293 2.86474 299.871 3.0172 300.134 1.20288C301.118 -1.76863 299.865 1.7609 299.981 1.25624C300.126 2.13291 300.663 1.70601 300.992 1.65875C300.891 2.0521 300.755 2.68635 300.585 3.28401Z" fill="#1A1A1A"/>
<path fill-rule="evenodd" clip-rule="evenodd" d="M363.064 185.108C365.34 181.319 367.196 177.152 369.016 173.435C369.985 174.932 372.76 191.314 376.595 217H368.299C365.786 198.145 363.918 186.452 363.064 185.108Z" fill="#1A1A1A"/>
<path fill-rule="evenodd" clip-rule="evenodd" d="M370.168 174.24C372.007 170.723 373.716 167.373 375.445 164.828C376.386 166.193 379.745 186.272 384.362 217H376.863C373.508 191.778 371.069 175.684 370.168 174.24Z" fill="#1A1A1A"/>
<path fill-rule="evenodd" clip-rule="evenodd" d="M376.273 163.807C377.823 161.595 379.303 159.494 380.764 157.496C382.495 167.521 384.247 177.413 385.928 187.244C387.639 197.227 389.326 207.16 390.97 216.979L390.86 216.998H384.118C381.606 199.528 378.937 181.737 376.273 163.805V163.807Z" fill="#1A1A1A"/>
<path fill-rule="evenodd" clip-rule="evenodd" d="M381.371 156.457C382.666 154.388 383.9 152.547 385.076 150.814C387.303 161.819 389.528 172.703 391.67 183.379C393.832 194.162 395.954 204.823 398 215.276V215.704C396.057 216.071 394.06 216.436 392.01 216.768C390.337 206.872 388.569 196.82 386.785 186.681C385.031 176.713 383.165 166.649 381.371 156.457Z" fill="#1A1A1A"/>
<path fill-rule="evenodd" clip-rule="evenodd" d="M385.66 150.046C386.768 148.388 387.64 146.716 388.411 144.94C391.122 156.772 393.866 168.501 396.404 180.046L398 187.305V210.694C396.188 201.563 394.308 192.299 392.408 182.94C390.217 172.136 387.951 161.127 385.659 150.047L385.66 150.046Z" fill="#1A1A1A"/>
<path fill-rule="evenodd" clip-rule="evenodd" d="M388.976 144.269C389.915 142.781 390.758 141.367 391.502 139.811C393.685 148.678 395.863 157.469 398 166.173V183.732L397.082 179.656C394.476 168.074 391.751 156.234 388.976 144.27V144.269Z" fill="#1A1A1A"/>
<path fill-rule="evenodd" clip-rule="evenodd" d="M391.918 139.163C392.662 137.934 393.17 136.49 393.675 135.054C395.133 140.524 396.574 145.963 398 151.364V163.65C395.986 155.575 393.942 147.408 391.918 139.164V139.163Z" fill="#1A1A1A"/>
<path fill-rule="evenodd" clip-rule="evenodd" d="M394.218 134.668C394.721 133.419 395.176 132.139 395.498 130.902L398 139.818V148.898C396.751 144.18 395.491 139.434 394.218 134.668Z" fill="#1A1A1A"/>
<path fill-rule="evenodd" clip-rule="evenodd" d="M395.703 129.922C396.107 128.717 396.427 127.565 396.706 126.533L398 130.962V138.085L395.703 129.922Z" fill="#1A1A1A"/>
<path fill-rule="evenodd" clip-rule="evenodd" d="M396.794 125.889C397.027 124.798 397.131 123.7 397.278 122.64L398 125.042V129.987L396.794 125.889Z" fill="#1A1A1A"/>
<path fill-rule="evenodd" clip-rule="evenodd" d="M397.337 122.239C397.44 121.195 397.371 120.022 397.264 118.909L398 121.286V124.432L397.337 122.239Z" fill="#1A1A1A"/>
<path fill-rule="evenodd" clip-rule="evenodd" d="M397.221 118.146C397.21 117.261 397.025 116.229 396.84 115.136L398 118.865V120.651L397.221 118.146Z" fill="#1A1A1A"/>
<path fill-rule="evenodd" clip-rule="evenodd" d="M396.821 114.857C396.647 113.925 396.353 113.029 396.015 112.012L397.998 118.406V118.618L396.82 114.857H396.821Z" fill="#1A1A1A"/>
<path fill-rule="evenodd" clip-rule="evenodd" d="M395.823 111.411C395.413 110.527 394.96 109.559 394.643 108.803C395.758 112.424 396.88 116.045 398 119.658V118.426C397.269 116.089 396.54 113.753 395.823 111.411Z" fill="#1A1A1A"/>
<path fill-rule="evenodd" clip-rule="evenodd" d="M394.295 108.226C393.814 107.386 393.175 106.441 392.538 105.549C394.362 111.527 396.19 117.502 398.002 123.461V120.259C396.763 116.249 395.522 112.232 394.296 108.226H394.295Z" fill="#1A1A1A"/>
<path fill-rule="evenodd" clip-rule="evenodd" d="M299.203 217C303.615 212.707 307.807 208.712 311.785 204.635C314.233 208.665 316.793 212.823 319.347 217H299.203Z" fill="#1A1A1A"/>
<path fill-rule="evenodd" clip-rule="evenodd" d="M314.057 202.576C318.61 197.782 322.835 193.809 326.81 190.139C331.3 196.338 335.462 202.356 339.854 209.026C337.89 211.435 335.886 214.14 333.788 217.002H323.06C320.036 212.051 317.037 207.265 314.057 202.576Z" fill="#1A1A1A"/>
<path fill-rule="evenodd" clip-rule="evenodd" d="M328.671 188.174C332.609 184.652 336.078 181.304 339.446 178.082C343.383 183.368 347.422 189.006 351.36 194.568C348.354 198.418 345.035 202.354 341.622 206.704C337.282 200.418 333.127 194.324 328.671 188.174Z" fill="#1A1A1A"/>
<path fill-rule="evenodd" clip-rule="evenodd" d="M341.077 176.6C344.184 173.876 347.161 171.11 349.949 168.541C353.439 173.171 357.059 177.669 360.727 182.467C358.173 185.625 355.569 188.957 352.793 192.707C348.884 187.308 344.932 181.738 341.076 176.6H341.077Z" fill="#1A1A1A"/>
<path fill-rule="evenodd" clip-rule="evenodd" d="M359.624 159.09C361.762 156.969 363.866 155.077 365.897 153.247C368.779 156.664 371.926 160.422 374.798 164.055C373.17 166.248 371.28 168.59 369.397 171.258C366.125 166.968 362.931 163.226 359.624 159.09Z" fill="#1A1A1A"/>
<path fill-rule="evenodd" clip-rule="evenodd" d="M367.079 152.619C368.896 150.838 370.733 149.222 372.331 147.417C374.907 150.462 377.609 153.6 380.12 156.644C378.751 158.701 377.224 160.762 375.629 162.959C372.843 159.538 369.873 155.969 367.079 152.619Z" fill="#1A1A1A"/>
<path fill-rule="evenodd" clip-rule="evenodd" d="M373.487 146.377C374.964 144.741 376.379 143.252 377.735 141.771C380.089 144.456 382.518 147.294 384.75 149.939C383.668 151.636 382.391 153.356 381.052 155.249C378.543 152.236 375.888 149.219 373.486 146.377H373.487Z" fill="#1A1A1A"/>
<path fill-rule="evenodd" clip-rule="evenodd" d="M378.587 140.947C379.877 139.678 381.024 138.358 382.25 137.133C384.289 139.434 386.441 141.791 388.483 144.092C387.624 145.749 386.618 147.377 385.694 149.129C383.326 146.464 380.855 143.639 378.587 140.947Z" fill="#1A1A1A"/>
<path fill-rule="evenodd" clip-rule="evenodd" d="M382.725 136.493C383.804 135.328 384.786 133.976 385.632 132.771C387.531 134.824 389.317 136.845 391.346 139.03C390.512 140.503 389.669 141.895 388.777 143.407C386.783 141.178 384.722 138.865 382.724 136.493H382.725Z" fill="#1A1A1A"/>
<path fill-rule="evenodd" clip-rule="evenodd" d="M386.177 131.823C387.095 130.751 387.883 129.734 388.706 128.685C390.468 130.599 392.206 132.567 393.727 134.244C393.22 135.569 392.532 136.813 391.973 138.237C390.08 136.1 388.117 133.9 386.176 131.823H386.177Z" fill="#1A1A1A"/>
<path fill-rule="evenodd" clip-rule="evenodd" d="M389.035 128.355C389.765 127.31 390.36 126.177 390.998 125.261C392.4 126.722 393.815 128.338 395.195 129.899C394.785 131.111 394.418 132.399 393.916 133.648C392.307 131.872 390.705 130.094 389.035 128.355Z" fill="#1A1A1A"/>
<path fill-rule="evenodd" clip-rule="evenodd" d="M391.269 124.641C391.901 123.764 392.277 122.751 392.651 121.811C393.867 123.084 395.135 124.416 396.324 125.717C396.092 126.83 395.729 127.926 395.5 129.239C394.122 127.746 392.62 126.066 391.267 124.641H391.269Z" fill="#1A1A1A"/>
<path fill-rule="evenodd" clip-rule="evenodd" d="M392.924 121.404C393.209 120.423 393.54 119.599 393.824 118.675C394.904 119.803 395.865 120.908 396.999 122.101C396.849 123.113 396.702 124.205 396.47 125.258C395.236 123.898 394.054 122.61 392.924 121.405V121.404Z" fill="#1A1A1A"/>
<path fill-rule="evenodd" clip-rule="evenodd" d="M393.957 118.014C394.116 117.11 394.318 116.31 394.35 115.354C395.339 116.426 396.202 117.363 397.023 118.236C397.131 119.364 397.105 120.352 397.045 121.457C396.084 120.408 394.953 119.137 393.957 118.016V118.014Z" fill="#1A1A1A"/>
<path fill-rule="evenodd" clip-rule="evenodd" d="M379.4 93.1675C378.152 92.4951 376.98 91.8624 375.694 91.347C375.696 91.5315 375.658 91.6428 375.541 91.6306C376.906 92.271 378.352 93.1187 379.487 93.727C379.483 93.4785 379.483 93.4068 379.4 93.1675Z" fill="#1A1A1A"/>
<path fill-rule="evenodd" clip-rule="evenodd" d="M394.504 112.108C394.336 111.248 394.213 110.423 394.014 109.699C394.519 110.199 395.196 110.931 395.75 111.559C396.046 112.532 396.34 113.483 396.642 114.468C395.828 113.604 395.226 112.912 394.506 112.108H394.504Z" fill="#1A1A1A"/>
<path fill-rule="evenodd" clip-rule="evenodd" d="M393.783 109.047C393.501 108.251 393.184 107.443 392.868 106.665C393.371 107.246 393.751 107.749 394.256 108.31C394.782 109.243 395.19 110.131 395.604 111.108C394.962 110.352 394.454 109.763 393.781 109.047H393.783Z" fill="#1A1A1A"/>
<path fill-rule="evenodd" clip-rule="evenodd" d="M387.816 99.635C387.088 98.8742 386.324 98.1744 385.524 97.5463C385.728 97.8298 385.933 98.1272 386.096 98.3665C386.981 99.1548 387.825 99.8866 388.635 100.64C388.349 100.324 388.183 100.088 387.816 99.635Z" fill="#1A1A1A"/>
<path fill-rule="evenodd" clip-rule="evenodd" d="M253.855 209.898C261.562 204.701 268.235 199.778 275.198 195.253C279.351 202.312 283.667 209.29 288.026 217.002H257.649C256.395 214.608 255.132 212.24 253.855 209.898Z" fill="#1A1A1A"/>
<path fill-rule="evenodd" clip-rule="evenodd" d="M278.32 193.248C284.445 188.922 290.173 184.78 295.475 180.984C299.921 187.614 304.325 194.22 308.71 201.235C303.563 206.009 298.295 211.324 292.274 216.485C287.658 208.357 282.86 200.77 278.32 193.248Z" fill="#1A1A1A"/>
<path fill-rule="evenodd" clip-rule="evenodd" d="M298.012 179.213C303.092 176.268 307.587 173.019 311.959 169.994C315.992 175.403 320.158 181.075 324.186 186.992C320.085 190.842 315.879 194.771 311.165 199.278C306.672 192.219 302.474 185.568 298.012 179.213Z" fill="#1A1A1A"/>
<path fill-rule="evenodd" clip-rule="evenodd" d="M313.949 168.385C318.16 165.669 321.999 162.915 325.697 160.602C329.398 165.232 333.336 170.482 337.096 175.836C333.653 178.866 329.984 181.822 326.024 185.216C322.149 179.563 318.01 173.944 313.949 168.385Z" fill="#1A1A1A"/>
<path fill-rule="evenodd" clip-rule="evenodd" d="M327.46 159.474C330.982 157.381 334.164 155.152 337.321 153.331C340.831 157.464 344.195 161.762 347.78 166.381C344.962 168.841 341.86 171.351 338.748 174.139C335.027 169.25 331.17 164.071 327.46 159.474Z" fill="#1A1A1A"/>
<path fill-rule="evenodd" clip-rule="evenodd" d="M369.438 88.99C370.257 88.9062 370.997 88.8178 371.658 88.6897C373.014 90.0268 374.258 91.2739 375.586 92.5424C374.923 92.6339 374.299 92.8504 373.595 93.0151C372.227 91.7222 370.907 90.3775 369.438 88.99Z" fill="#1A1A1A"/>
<path fill-rule="evenodd" clip-rule="evenodd" d="M348.359 145.873C350.851 144.38 353.108 142.799 355.427 141.348C358.301 144.769 361.26 148.207 364.164 151.703C362.094 153.372 359.947 155.22 357.637 157.077C354.578 153.308 351.51 149.622 348.359 145.873Z" fill="#1A1A1A"/>
<path fill-rule="evenodd" clip-rule="evenodd" d="M356.722 140.883C358.789 139.43 360.874 138.121 362.857 136.784C365.325 139.634 367.907 142.615 370.384 145.624C368.698 147.309 366.906 148.905 365.042 150.642C362.305 147.472 359.517 144.171 356.722 140.883Z" fill="#1A1A1A"/>
<path fill-rule="evenodd" clip-rule="evenodd" d="M364.092 135.993C365.954 134.86 367.454 133.535 369.109 132.456C371.461 135.084 373.834 137.685 376.059 140.279C374.703 141.7 373.199 143.087 371.586 144.644C369.023 141.515 366.522 138.701 364.093 135.993H364.092Z" fill="#1A1A1A"/>
<path fill-rule="evenodd" clip-rule="evenodd" d="M370.046 131.735C371.597 130.646 373.006 129.542 374.488 128.69C376.542 130.919 378.701 133.239 380.885 135.848C379.704 137.077 378.466 138.277 377.084 139.673C374.815 137.1 372.398 134.304 370.046 131.735Z" fill="#1A1A1A"/>
<path fill-rule="evenodd" clip-rule="evenodd" d="M375.01 128.222C376.308 127.19 377.553 126.321 378.621 125.321C380.503 127.362 382.445 129.478 384.319 131.466C383.342 132.622 382.356 133.9 381.187 135.151C379.139 132.75 377.067 130.486 375.01 128.22V128.222Z" fill="#1A1A1A"/>
<path fill-rule="evenodd" clip-rule="evenodd" d="M379.385 124.636C380.525 123.892 381.445 122.899 382.36 122.047C384.154 123.919 385.966 125.889 387.75 127.894C386.794 128.763 386.05 129.923 385.17 130.98C383.294 128.896 381.266 126.694 379.385 124.637V124.636Z" fill="#1A1A1A"/>
<path fill-rule="evenodd" clip-rule="evenodd" d="M382.861 121.779C383.854 121.055 384.503 120.089 385.317 119.262C386.853 120.862 388.443 122.567 389.915 124.192C389.19 125.101 388.549 126.116 387.817 127.165C386.166 125.365 384.528 123.56 382.861 121.779Z" fill="#1A1A1A"/>
<path fill-rule="evenodd" clip-rule="evenodd" d="M389.826 113.776C390.158 112.983 390.452 112.279 390.704 111.552C391.758 112.668 392.69 113.656 393.668 114.701C393.509 115.549 393.263 116.33 393.188 117.322C391.991 116.086 390.923 114.921 389.824 113.777L389.826 113.776Z" fill="#1A1A1A"/>
<path fill-rule="evenodd" clip-rule="evenodd" d="M390.977 111.295C391.062 110.448 391.316 109.867 391.361 109.158C392.159 109.99 393.002 110.89 393.805 111.766C393.846 112.575 393.768 113.419 393.687 114.224C392.794 113.244 391.905 112.247 390.977 111.295Z" fill="#1A1A1A"/>
<path fill-rule="evenodd" clip-rule="evenodd" d="M391.237 106.374C391.171 105.846 390.979 105.069 390.835 104.485C391.373 105.081 391.958 105.753 392.457 106.302C392.853 107.127 393.13 107.911 393.37 108.704C392.66 107.979 391.987 107.183 391.239 106.375L391.237 106.374Z" fill="#1A1A1A"/>
<path fill-rule="evenodd" clip-rule="evenodd" d="M389.878 102.389C389.581 101.876 389.122 101.108 388.504 100.344C388.833 100.775 389.245 101.24 389.413 101.573C390.154 102.462 390.695 103.169 391.281 103.97C390.865 103.474 390.33 102.898 389.877 102.389H389.878Z" fill="#1A1A1A"/>
<path fill-rule="evenodd" clip-rule="evenodd" d="M385.704 97.0934C385.14 96.4699 384.541 95.9164 383.986 95.4209C384.347 95.889 384.67 96.3326 385.029 96.7168C385.71 97.3496 386.394 98.0341 386.997 98.5815C386.511 98.0372 386.148 97.6255 385.703 97.0934H385.704Z" fill="#1A1A1A"/>
<path fill-rule="evenodd" clip-rule="evenodd" d="M387.174 100.251C387.08 99.7753 386.865 99.263 386.77 98.7827C387.34 99.4551 387.95 100.13 388.521 100.739C388.735 101.295 389.035 101.904 389.257 102.504C388.6 101.805 387.866 101.056 387.174 100.251Z" fill="#1A1A1A"/>
<path fill-rule="evenodd" clip-rule="evenodd" d="M126.458 136.833C139.023 134.183 150.569 131.572 161.443 129.086C165.634 135.857 169.912 142.323 173.918 149.262C163.37 152.203 151.732 155.993 138.846 159.854C134.653 151.863 130.59 144.304 126.457 136.833H126.458Z" fill="#1A1A1A"/>
<path fill-rule="evenodd" clip-rule="evenodd" d="M198.92 129.187C207.692 127.239 215.41 125.317 223.091 123.865C226.858 128.975 230.96 134.269 235.05 139.818C227.556 142.099 219.689 144.548 211.236 147.257C207.298 141.171 203.01 134.92 198.92 129.185V129.187Z" fill="#1A1A1A"/>
<path fill-rule="evenodd" clip-rule="evenodd" d="M209.241 89.4108C216.227 89.1302 222.764 88.7064 229.071 88.371C232.619 92.2527 236.092 96.0384 239.431 99.9719C233.313 100.528 226.817 101.236 219.906 102.248C216.457 97.8146 213.014 93.5212 209.241 89.4108Z" fill="#1A1A1A"/>
<path fill-rule="evenodd" clip-rule="evenodd" d="M172.122 217C181.077 212.242 189.457 207.741 197.35 203.403C199.605 207.845 201.865 212.374 204.099 217H172.123H172.122Z" fill="#1A1A1A"/>
<path fill-rule="evenodd" clip-rule="evenodd" d="M202.71 200.618C212.992 195.14 222.052 189.858 230.915 185.132C235.565 193.191 240.328 201.859 245.068 210.51C242.167 212.659 239.214 214.815 236.186 217H210.691C207.99 211.402 205.336 205.96 202.71 200.618Z" fill="#1A1A1A"/>
<path fill-rule="evenodd" clip-rule="evenodd" d="M235.016 183.011C243.041 179.066 250.45 175.4 257.255 171.767C261.641 178.437 266.312 185.597 270.53 192.984C263.901 197.585 256.769 202.307 248.927 207.393C244.397 198.874 239.667 190.959 235.016 183.011Z" fill="#1A1A1A"/>
<path fill-rule="evenodd" clip-rule="evenodd" d="M260.982 170.755C267.612 167.358 273.654 164.388 279.382 161.551C283.331 167.173 287.498 172.991 291.686 178.909C286.185 182.662 280.163 186.8 273.821 191.153C269.469 183.81 265.272 177.315 260.982 170.753V170.755Z" fill="#1A1A1A"/>
<path fill-rule="evenodd" clip-rule="evenodd" d="M282.914 159.482C288.208 157.036 293.207 154.652 297.941 152.279C301.719 157.129 305.513 162.247 309.312 167.506C304.831 170.614 300.141 173.584 295.022 176.55C291.054 170.927 286.952 165.173 282.914 159.483V159.482Z" fill="#1A1A1A"/>
<path fill-rule="evenodd" clip-rule="evenodd" d="M300.679 150.89C304.982 148.454 309.101 146.656 313.187 144.875C316.743 149.41 320.392 154.043 324.143 158.725C320.278 160.898 316.237 163.42 312.164 166.22C308.391 161.038 304.449 155.844 300.679 150.89Z" fill="#1A1A1A"/>
<path fill-rule="evenodd" clip-rule="evenodd" d="M314.975 144.377C318.606 142.616 322.191 140.96 325.681 139.495C328.772 143.401 332.042 147.294 335.269 151.188C332.1 153.153 328.744 155.269 325.342 157.538C321.841 153.08 318.306 148.619 314.977 144.377H314.975Z" fill="#1A1A1A"/>
<path fill-rule="evenodd" clip-rule="evenodd" d="M338.041 133.663C340.926 132.614 343.444 131.439 345.946 130.282C348.637 133.319 351.436 136.508 354.014 139.513C351.742 140.982 349.532 142.563 346.821 143.955C343.978 140.529 341.04 137.068 338.041 133.662V133.663Z" fill="#1A1A1A"/>
<path fill-rule="evenodd" clip-rule="evenodd" d="M347.275 129.739C349.705 128.586 351.899 127.438 354.058 126.589C356.565 129.314 358.884 131.967 361.478 134.912C359.501 136.2 357.466 137.445 355.362 138.87C352.606 135.777 350.017 132.732 347.275 129.739Z" fill="#1A1A1A"/>
<path fill-rule="evenodd" clip-rule="evenodd" d="M355.134 126.165C357.103 125.237 358.89 124.273 360.744 123.468C363.099 125.993 365.439 128.47 367.533 130.971C366.005 132.099 364.207 133.18 362.435 134.34C359.92 131.552 357.513 128.85 355.135 126.165H355.134Z" fill="#1A1A1A"/>
<path fill-rule="evenodd" clip-rule="evenodd" d="M362.096 123.116C363.892 122.308 365.503 121.547 367.064 120.675C368.931 122.695 371.146 125.069 373.042 127.242C371.689 128.222 370.153 129.198 368.6 130.303C366.501 127.862 364.246 125.458 362.096 123.116Z" fill="#1A1A1A"/>
<path fill-rule="evenodd" clip-rule="evenodd" d="M367.927 120.234C369.426 119.567 370.921 118.906 372.237 118.234C374.067 120.179 375.826 122.104 377.646 124.005C376.493 124.877 375.164 125.682 373.909 126.758C371.928 124.517 370.004 122.376 367.927 120.236V120.234Z" fill="#1A1A1A"/>
<path fill-rule="evenodd" clip-rule="evenodd" d="M372.62 117.862C373.929 117.238 375.061 116.542 376.311 115.978C377.895 117.603 379.572 119.391 381.261 121.148C380.217 121.931 379.209 122.816 378.069 123.717C376.294 121.76 374.45 119.847 372.62 117.862Z" fill="#1A1A1A"/>
<path fill-rule="evenodd" clip-rule="evenodd" d="M376.851 115.429C377.846 114.692 378.833 114 379.817 113.48C381.438 115.185 382.906 116.734 384.384 118.313C383.611 119.146 382.75 119.919 381.841 120.742C380.152 118.925 378.476 117.193 376.851 115.427V115.429Z" fill="#1A1A1A"/>
<path fill-rule="evenodd" clip-rule="evenodd" d="M380.389 113.108C381.284 112.62 382.134 112.108 382.857 111.468C384.231 112.924 385.486 114.241 386.961 115.817C386.324 116.526 385.683 117.219 384.957 117.934C383.48 116.397 382.014 114.884 380.389 113.108Z" fill="#1A1A1A"/>
<path fill-rule="evenodd" clip-rule="evenodd" d="M243.364 107.754C249.212 106.949 254.785 106.261 260.194 105.413C263.567 109.467 266.966 113.377 270.543 117.446C265.388 118.534 259.901 119.562 254.057 121.007C250.467 116.473 246.868 112.108 243.363 107.754H243.364Z" fill="#1A1A1A"/>
<path fill-rule="evenodd" clip-rule="evenodd" d="M351.885 86.8814C353.477 86.8936 354.985 86.8966 356.411 86.921C358.082 88.5981 359.805 90.2341 361.416 91.8624C360.024 91.838 358.816 92.0713 357.292 92.1262C355.533 90.3652 353.744 88.6088 351.884 86.8799L351.885 86.8814Z" fill="#1A1A1A"/>
<path fill-rule="evenodd" clip-rule="evenodd" d="M352.137 81.6718C353.579 81.8471 354.947 81.9797 356.272 82.088C357.894 83.6126 359.444 85.0778 360.962 86.5171C359.742 86.5247 358.483 86.5094 357.184 86.4576C355.556 84.9055 353.826 83.268 352.137 81.6718Z" fill="#1A1A1A"/>
<path fill-rule="evenodd" clip-rule="evenodd" d="M75.0066 217C79.2709 215.199 83.4373 213.426 87.5011 211.674C88.1835 213.423 88.8537 215.199 89.5146 217H75.0051H75.0066Z" fill="#1A1A1A"/>
<path fill-rule="evenodd" clip-rule="evenodd" d="M246.502 69.4945C251.545 69.7583 256.334 69.99 260.895 70.2065C263.708 72.9996 266.491 75.8324 269.361 78.5371C264.799 78.5646 260.233 78.5005 255.321 78.4335C252.472 75.4086 249.457 72.4508 246.504 69.4945H246.502Z" fill="#1A1A1A"/>
<path fill-rule="evenodd" clip-rule="evenodd" d="M148.577 185.948C161.411 180.694 173.18 176.048 184.38 171.753C188.744 179.828 193.415 188.505 197.675 197.8C186.68 203.554 175.163 209.397 162.287 215.648C157.934 205.547 153.233 195.539 148.578 185.948H148.577Z" fill="#1A1A1A"/>
<path fill-rule="evenodd" clip-rule="evenodd" d="M221.241 157.321C229.361 154.299 237.091 151.611 244.257 148.966C248.431 154.944 252.685 161.282 256.822 167.69C249.972 171.2 242.427 174.765 234.717 178.37C230.225 171.311 225.742 164.045 221.242 157.323L221.241 157.321Z" fill="#1A1A1A"/>
<path fill-rule="evenodd" clip-rule="evenodd" d="M270.518 140.37C276.129 138.469 281.249 136.732 286.123 134.944C289.658 139.302 293.356 144.035 296.904 148.902C292.262 151.146 287.181 153.528 282.05 155.989C278.342 150.582 274.347 145.284 270.517 140.37H270.518Z" fill="#1A1A1A"/>
<path fill-rule="evenodd" clip-rule="evenodd" d="M288.908 134.08C293.555 132.518 297.908 131.139 302.08 129.878C305.575 134.008 308.967 138.201 312.462 142.371C308.493 144.067 304.449 145.772 300.075 147.893C296.285 143.023 292.654 138.333 288.908 134.08Z" fill="#1A1A1A"/>
<path fill-rule="evenodd" clip-rule="evenodd" d="M303.878 129.419C307.746 128.17 311.499 126.941 315.182 125.693C318.25 129.333 321.319 132.912 324.456 136.624C321.064 138.144 317.482 139.85 313.837 141.494C310.425 137.376 307.056 133.307 303.88 129.417L303.878 129.419Z" fill="#1A1A1A"/>
<path fill-rule="evenodd" clip-rule="evenodd" d="M317.615 124.953C320.915 123.957 324.148 123 327.101 122.047C330.186 125.488 333.114 128.69 336.003 132.131C333.234 133.224 330.253 134.464 326.989 136.025C323.911 132.108 320.667 128.438 317.615 124.953Z" fill="#1A1A1A"/>
<path fill-rule="evenodd" clip-rule="evenodd" d="M328.548 121.739C331.549 120.911 334.237 119.963 336.939 119.185C339.586 122.047 342.285 125.124 344.801 128.105C342.36 129.173 339.851 130.361 336.938 131.351C334.233 128.257 331.361 124.907 328.55 121.739H328.548Z" fill="#1A1A1A"/>
<path fill-rule="evenodd" clip-rule="evenodd" d="M338.378 118.722C340.964 118.025 343.398 117.421 345.696 116.749C348.122 119.397 350.617 122.003 352.92 124.596C350.816 125.397 348.51 126.341 346.221 127.473C343.662 124.471 341.027 121.616 338.378 118.722Z" fill="#1A1A1A"/>
<path fill-rule="evenodd" clip-rule="evenodd" d="M346.755 116.417C348.946 115.813 351.043 115.173 353.048 114.471C355.29 116.888 357.553 119.297 359.666 121.646C357.9 122.494 355.951 123.335 353.95 124.124C351.555 121.587 349.188 118.978 346.754 116.417H346.755Z" fill="#1A1A1A"/>
<path fill-rule="evenodd" clip-rule="evenodd" d="M354.424 114.229C356.364 113.64 358.087 112.977 359.752 112.453C361.813 114.522 363.842 116.642 365.848 118.699C364.371 119.615 362.679 120.443 360.847 121.184C358.688 118.815 356.589 116.531 354.423 114.229H354.424Z" fill="#1A1A1A"/>
<path fill-rule="evenodd" clip-rule="evenodd" d="M360.976 112.352C362.589 111.796 364.192 111.327 365.747 110.899C367.447 112.68 369.322 114.625 371.047 116.517C369.65 117.094 368.287 117.749 366.79 118.39C364.908 116.412 362.956 114.424 360.976 112.351V112.352Z" fill="#1A1A1A"/>
<path fill-rule="evenodd" clip-rule="evenodd" d="M366.17 110.574C367.512 110.025 368.843 109.518 370.211 109.066C371.836 110.751 373.591 112.636 375.194 114.337C373.986 114.945 372.814 115.593 371.551 116.218C369.786 114.346 367.948 112.504 366.168 110.576L366.17 110.574Z" fill="#1A1A1A"/>
<path fill-rule="evenodd" clip-rule="evenodd" d="M370.834 108.687C372.069 108.226 373.177 107.819 374.321 107.47C375.908 109.042 377.462 110.579 378.986 112.216C377.964 112.709 376.977 113.305 375.945 113.957C374.257 112.225 372.581 110.432 370.836 108.687H370.834Z" fill="#1A1A1A"/>
<path fill-rule="evenodd" clip-rule="evenodd" d="M280.945 103.28C285.327 102.832 289.546 102.492 293.591 102.048C296.583 105.273 299.633 108.575 302.677 111.832C298.774 112.488 294.876 113.273 290.501 114.16C287.309 110.463 284.151 106.786 280.945 103.28Z" fill="#1A1A1A"/>
<path fill-rule="evenodd" clip-rule="evenodd" d="M295.43 101.756C299.244 101.275 302.971 100.951 306.319 100.504C309.251 103.517 312.15 106.598 314.872 109.615C311.558 110.259 308.138 110.908 304.445 111.5C301.513 108.339 298.422 104.97 295.43 101.756Z" fill="#1A1A1A"/>
<path fill-rule="evenodd" clip-rule="evenodd" d="M307.98 100.32C311.46 99.9841 314.579 99.6868 317.606 99.3956C320.227 102.061 322.976 104.918 325.593 107.655C322.683 108.203 319.673 108.758 316.504 109.431C313.747 106.317 310.838 103.244 307.98 100.32Z" fill="#1A1A1A"/>
<path fill-rule="evenodd" clip-rule="evenodd" d="M319.034 99.231C321.996 98.9474 324.808 98.7751 327.494 98.5266C329.952 101.012 332.567 103.761 334.94 106.206C332.384 106.638 329.703 106.958 326.957 107.391C324.449 104.77 321.653 101.913 319.032 99.231H319.034Z" fill="#1A1A1A"/>
<path fill-rule="evenodd" clip-rule="evenodd" d="M328.808 98.4305C331.399 98.1423 333.822 97.7901 336.253 97.6941C338.537 99.9704 340.877 102.34 343.186 104.788C341.007 105.165 338.687 105.596 336.186 106.061C333.779 103.488 331.227 100.911 328.808 98.4305Z" fill="#1A1A1A"/>
<path fill-rule="evenodd" clip-rule="evenodd" d="M337.379 97.6545C339.644 97.438 341.732 97.2383 343.851 97.098C346.081 99.2554 348.321 101.475 350.258 103.537C348.4 103.909 346.411 104.293 344.214 104.569C341.979 102.18 339.754 99.9232 337.381 97.6545H337.379Z" fill="#1A1A1A"/>
<path fill-rule="evenodd" clip-rule="evenodd" d="M344.804 97.0264C346.834 96.819 348.813 96.6864 350.585 96.4943C352.633 98.4915 354.65 100.551 356.644 102.541C354.974 102.933 353.06 103.133 351.262 103.398C349.16 101.314 347.078 99.1837 344.804 97.0279V97.0264Z" fill="#1A1A1A"/>
<path fill-rule="evenodd" clip-rule="evenodd" d="M351.605 96.5263C353.406 96.3662 355.083 96.2061 356.673 96.0582C358.414 97.8634 360.248 99.6792 362.097 101.448C360.577 101.704 358.966 102.093 357.432 102.436C355.517 100.443 353.612 98.551 351.605 96.5263Z" fill="#1A1A1A"/>
<path fill-rule="evenodd" clip-rule="evenodd" d="M357.648 95.953C359.187 95.8447 360.563 95.6648 361.972 95.5962C363.65 97.1925 365.336 98.8528 367.03 100.538C365.73 100.778 364.506 101.07 363.119 101.298C361.311 99.5252 359.434 97.7124 357.648 95.9514V95.953Z" fill="#1A1A1A"/>
<path fill-rule="evenodd" clip-rule="evenodd" d="M362.779 95.4529C364.104 95.2928 365.267 95.1495 366.503 95.0413C368.108 96.6101 369.723 98.1302 371.305 99.7631C370.218 100.027 369.049 100.219 367.836 100.527C366.181 98.83 364.455 97.1209 362.778 95.4529H362.779Z" fill="#1A1A1A"/>
<path fill-rule="evenodd" clip-rule="evenodd" d="M367.024 95.0123C368.141 94.8278 369.095 94.5915 370.087 94.4039C371.537 95.8569 373.034 97.3297 374.382 98.6943C373.507 98.955 372.509 99.2065 371.588 99.5145C370.085 98.0097 368.511 96.482 367.024 95.0123Z" fill="#1A1A1A"/>
<path fill-rule="evenodd" clip-rule="evenodd" d="M370.719 94.2759C371.588 94.1036 372.534 94.0518 373.32 93.8398C374.694 95.1968 376.077 96.5415 377.346 97.8374C376.637 98.0768 375.926 98.3375 375.093 98.5616C373.707 97.2017 372.208 95.7929 370.717 94.2759H370.719Z" fill="#1A1A1A"/>
<path fill-rule="evenodd" clip-rule="evenodd" d="M380.6 95.0931C380.868 94.8644 381.093 94.5092 381.284 94.2561C382.198 95.2242 383.111 96.0765 383.873 96.9334C383.887 97.3542 383.74 97.7262 383.555 98.086C382.554 97.0935 381.635 96.1451 380.602 95.0931H380.6Z" fill="#1A1A1A"/>
<path fill-rule="evenodd" clip-rule="evenodd" d="M362.785 87.1894C360.6 86.7259 358.454 86.2609 355.989 85.773C355.409 85.4772 354.862 85.3415 354.165 85.0808C356.781 85.7212 359.162 86.2289 361.463 86.7732C362.002 87.1376 362.361 86.9698 362.785 87.1894Z" fill="#1A1A1A"/>
<path fill-rule="evenodd" clip-rule="evenodd" d="M347.91 84.7454C344.816 84.477 341.686 84.4846 338.278 84.3291C337.639 84.2697 336.917 84.2163 336.17 83.9891C339.729 84.3291 342.989 84.2529 346.135 84.4419C346.876 84.7179 347.44 84.6188 347.91 84.7469V84.7454Z" fill="#1A1A1A"/>
<path fill-rule="evenodd" clip-rule="evenodd" d="M285.895 91.1869C289.841 90.9354 293.757 90.7951 297.293 90.5664C300.126 93.4068 302.926 96.296 305.659 99.237C302.163 99.5892 298.437 99.9292 294.727 100.361C291.801 97.1955 288.775 94.0548 285.897 91.1854L285.895 91.1869Z" fill="#1A1A1A"/>
<path fill-rule="evenodd" clip-rule="evenodd" d="M299.013 90.4674C302.544 90.411 305.897 90.3393 309.044 90.2036C311.598 92.829 314.407 95.578 316.881 98.1988C313.903 98.4915 310.669 98.7187 307.329 98.9916C304.624 96.1299 301.773 93.2376 299.013 90.4689V90.4674Z" fill="#1A1A1A"/>
<path fill-rule="evenodd" clip-rule="evenodd" d="M310.56 90.1914C313.678 90.1152 316.608 90.1198 319.498 90.0511C321.953 92.3915 324.401 94.8812 326.778 97.4456C324.064 97.5935 321.256 97.7902 318.329 98.1332C315.893 95.5246 313.123 92.7635 310.558 90.1899L310.56 90.1914Z" fill="#1A1A1A"/>
<path fill-rule="evenodd" clip-rule="evenodd" d="M320.845 89.9673C323.598 89.9109 326.164 89.9597 328.655 89.8789C331.01 92.1399 333.3 94.3934 335.526 96.63C333.181 96.7337 330.727 97.0295 328.098 97.3146C325.702 94.866 323.255 92.3366 320.845 89.9673Z" fill="#1A1A1A"/>
<path fill-rule="evenodd" clip-rule="evenodd" d="M329.856 89.8224C332.324 89.8696 334.472 89.7538 336.722 89.7751C338.941 91.9203 341.098 93.9846 343.188 96.0856C341.112 96.2731 338.946 96.45 336.651 96.5933C334.426 94.317 332.163 92.1642 329.856 89.8224Z" fill="#1A1A1A"/>
<path fill-rule="evenodd" clip-rule="evenodd" d="M337.752 89.6989C339.956 89.6745 341.952 89.6669 343.946 89.5952C345.99 91.5711 347.967 93.5242 349.953 95.5169C348.172 95.8615 346.24 95.9484 344.217 96.0886C342.047 93.9313 340.011 91.8471 337.751 89.6989H337.752Z" fill="#1A1A1A"/>
<path fill-rule="evenodd" clip-rule="evenodd" d="M344.876 89.6182C346.736 89.6182 348.628 89.702 350.24 89.6578C352.107 91.4066 354.02 93.2788 355.909 95.0718C354.286 95.1678 352.615 95.3035 350.851 95.5124C348.943 93.5319 346.882 91.591 344.876 89.6182Z" fill="#1A1A1A"/>
<path fill-rule="evenodd" clip-rule="evenodd" d="M276.008 80.6517C280.159 80.6959 284.165 80.7554 287.907 80.8484C290.638 83.5897 293.362 86.2258 296.052 88.9442C292.37 89.0677 288.498 89.2522 284.61 89.4199C281.695 86.4713 278.771 83.4815 276.008 80.6533V80.6517Z" fill="#1A1A1A"/>
<path fill-rule="evenodd" clip-rule="evenodd" d="M289.655 80.9719C293.309 80.9841 296.845 81.1442 300.134 81.2525C302.72 83.7696 305.324 86.2868 307.832 88.7872C304.633 88.7552 301.204 88.807 297.749 88.9671C295.108 86.1862 292.409 83.5806 289.655 80.9719Z" fill="#1A1A1A"/>
<path fill-rule="evenodd" clip-rule="evenodd" d="M301.797 81.2799C305.036 81.3439 308.173 81.472 311.135 81.6047C313.496 83.8779 315.9 86.2228 318.307 88.6881C315.468 88.7079 312.492 88.7644 309.423 88.8116C306.921 86.2746 304.317 83.7102 301.799 81.2799H301.797Z" fill="#1A1A1A"/>
<path fill-rule="evenodd" clip-rule="evenodd" d="M312.496 81.6199C315.443 81.7876 317.987 81.8394 320.675 81.9919C323.062 84.2133 325.229 86.3462 327.522 88.5661C324.961 88.5783 322.355 88.5509 319.565 88.6057C317.309 86.2456 314.901 83.9007 312.496 81.6199Z" fill="#1A1A1A"/>
<path fill-rule="evenodd" clip-rule="evenodd" d="M322.054 82.1078C324.502 82.1551 326.9 82.2237 329.285 82.3639C331.494 84.4969 333.609 86.5216 335.659 88.5143C333.522 88.6226 331.222 88.6378 328.719 88.5829C326.505 86.3539 324.289 84.2651 322.054 82.1078Z" fill="#1A1A1A"/>
<path fill-rule="evenodd" clip-rule="evenodd" d="M330.457 82.4005C332.79 82.5606 334.842 82.649 336.811 82.7283C338.896 84.6524 341.029 86.5933 342.94 88.4747C340.991 88.5067 338.953 88.5707 336.718 88.5143C334.666 86.5292 332.588 84.5091 330.457 82.4005Z" fill="#1A1A1A"/>
<path fill-rule="evenodd" clip-rule="evenodd" d="M338.038 82.9601C340.113 83.1324 341.949 83.2284 343.82 83.3397C345.728 85.1479 347.724 87.0126 349.567 88.8787C347.806 88.743 345.953 88.7186 344.019 88.6394C342.102 86.8342 340.196 85.0305 338.038 82.9616V82.9601Z" fill="#1A1A1A"/>
<path fill-rule="evenodd" clip-rule="evenodd" d="M280.857 72.1793C284.656 72.3958 288.251 72.5437 291.728 72.8273C294.304 75.2881 296.792 77.6695 299.308 80.234C295.877 80.0022 292.447 79.9778 288.729 79.8696C286.203 77.3006 283.565 74.7361 280.858 72.1793H280.857Z" fill="#1A1A1A"/>
<path fill-rule="evenodd" clip-rule="evenodd" d="M293.468 73.0728C296.871 73.2283 299.998 73.521 303.153 73.8534C305.551 76.0626 307.873 78.3145 310.251 80.6075C307.186 80.3514 304.203 80.3437 300.889 80.2401C298.391 77.7945 295.882 75.3063 293.468 73.0728Z" fill="#1A1A1A"/>
<path fill-rule="evenodd" clip-rule="evenodd" d="M304.61 73.9769C307.606 74.2087 310.383 74.5045 313.195 74.8094C315.472 76.8737 317.67 79.0235 319.961 81.1793C317.25 80.9034 314.587 80.8469 311.61 80.6274C309.377 78.467 307.004 76.238 304.61 73.9769Z" fill="#1A1A1A"/>
<path fill-rule="evenodd" clip-rule="evenodd" d="M314.564 74.9084C317.214 75.1448 319.71 75.2881 322.187 75.5244C324.326 77.5247 326.402 79.5022 328.524 81.5299C326.141 81.4064 323.789 81.3012 321.15 81.1823C318.894 79.0539 316.804 76.985 314.564 74.9084Z" fill="#1A1A1A"/>
<path fill-rule="evenodd" clip-rule="evenodd" d="M323.418 75.6738C325.655 75.8217 327.883 76.0336 330.175 76.3584C332.187 78.1986 334.202 80.1166 336.159 81.9523C334.075 81.8517 331.915 81.6443 329.693 81.5879C327.528 79.5586 325.446 77.6345 323.418 75.6738Z" fill="#1A1A1A"/>
<path fill-rule="evenodd" clip-rule="evenodd" d="M337.022 77.79C338.99 78.034 340.875 78.2581 342.605 78.4106C344.383 80.0465 346.28 81.78 348.11 83.5013C346.371 83.3458 344.579 83.3046 342.792 83.1933C340.976 81.408 339.013 79.6044 337.022 77.7916V77.79Z" fill="#1A1A1A"/>
<path fill-rule="evenodd" clip-rule="evenodd" d="M343.668 78.502C345.354 78.6498 346.962 78.7581 348.523 78.9548C350.157 80.5312 351.805 82.004 353.376 83.5439C351.996 83.5241 350.42 83.4113 348.916 83.364C347.236 81.7952 345.414 80.0861 343.668 78.502Z" fill="#1A1A1A"/>
<path fill-rule="evenodd" clip-rule="evenodd" d="M284.966 65.201C288.384 65.6051 291.68 65.9939 295.002 66.3903C297.355 68.5827 299.652 70.708 302.069 72.9371C298.81 72.5132 295.752 72.3287 292.265 71.9521C289.882 69.6438 287.407 67.4697 284.966 65.201Z" fill="#1A1A1A"/>
<path fill-rule="evenodd" clip-rule="evenodd" d="M296.529 66.5504C299.572 66.8827 302.629 67.3142 305.535 67.6786C307.691 69.7155 309.937 71.7722 312.188 73.8808C309.342 73.5652 306.594 73.3441 303.523 73.088C301.11 70.8239 298.806 68.7184 296.529 66.5488V66.5504Z" fill="#1A1A1A"/>
<path fill-rule="evenodd" clip-rule="evenodd" d="M306.926 67.8418C309.628 68.1498 312.278 68.5142 314.996 68.9228C317.066 70.8682 319.044 72.649 321.206 74.6417C318.732 74.4054 316.206 74.2056 313.548 74.0288C311.34 71.908 309.057 69.8025 306.926 67.8418Z" fill="#1A1A1A"/>
<path fill-rule="evenodd" clip-rule="evenodd" d="M316.178 69.1072C318.577 69.4746 320.975 69.7917 323.252 70.0997C325.23 71.9171 327.299 73.7405 329.265 75.5305C327.006 75.2987 324.783 75.0548 322.439 74.7895C320.271 72.8242 318.219 70.9642 316.178 69.1072Z" fill="#1A1A1A"/>
<path fill-rule="evenodd" clip-rule="evenodd" d="M330.59 71.6641C332.654 71.9964 334.565 72.2251 336.36 72.4569C338.214 74.1568 340.086 75.8309 341.844 77.5431C340.078 77.3586 338.271 77.1756 336.267 76.9195C334.402 75.1829 332.544 73.4784 330.59 71.6656V71.6641Z" fill="#1A1A1A"/>
<path fill-rule="evenodd" clip-rule="evenodd" d="M337.691 72.9676C339.518 73.2115 341.146 73.4677 342.806 73.7757C344.532 75.3155 346.226 76.8402 348.039 78.4807C346.481 78.2764 344.797 78.1483 343.112 78.008C341.348 76.3187 339.555 74.6462 337.69 72.9661L337.691 72.9676Z" fill="#1A1A1A"/>
<path fill-rule="evenodd" clip-rule="evenodd" d="M277.633 57.1006C281.236 57.6663 284.639 58.1709 287.911 58.7366C290.261 60.6942 292.49 62.7067 294.901 64.9114C291.604 64.4067 288.275 64.0469 284.873 63.6063C282.448 61.362 280.054 59.2321 277.635 57.0991L277.633 57.1006Z" fill="#1A1A1A"/>
<path fill-rule="evenodd" clip-rule="evenodd" d="M289.464 58.8998C292.685 59.4547 295.76 59.8877 298.777 60.4107C300.867 62.3516 303.057 64.2238 305.275 66.2577C302.348 65.8338 299.327 65.4618 296.271 64.9968C294.032 62.9599 291.796 60.9748 289.464 58.8998Z" fill="#1A1A1A"/>
<path fill-rule="evenodd" clip-rule="evenodd" d="M281.121 51.6866C284.397 52.2645 287.537 52.8987 290.606 53.472C292.814 55.4281 294.973 57.3049 297.135 59.1879C294.238 58.6908 291.094 58.2106 287.795 57.6495C285.616 55.7086 283.343 53.7022 281.12 51.6866H281.121Z" fill="#1A1A1A"/>
<path fill-rule="evenodd" clip-rule="evenodd" d="M245.49 53.7404C250.202 54.3914 254.591 54.9967 258.765 55.4312C261.542 57.8264 264.085 60.2841 266.545 62.5893C262.493 62.2493 258.179 61.7615 253.604 61.269C251.001 58.7823 248.294 56.2621 245.491 53.7419L245.49 53.7404Z" fill="#1A1A1A"/>
<path fill-rule="evenodd" clip-rule="evenodd" d="M372.662 100.214C373.663 99.9383 374.579 99.6456 375.454 99.4093C376.813 100.754 378.218 102.126 379.549 103.636C378.873 103.988 378.075 104.412 377.234 104.796C375.78 103.328 374.217 101.722 372.662 100.214Z" fill="#1A1A1A"/>
<path fill-rule="evenodd" clip-rule="evenodd" d="M368.914 101.163C370.087 100.887 371.175 100.586 372.22 100.315C373.816 101.931 375.34 103.485 376.792 104.961C375.947 105.424 375.017 105.857 374.001 106.301C372.349 104.584 370.626 102.828 368.914 101.163Z" fill="#1A1A1A"/>
<path fill-rule="evenodd" clip-rule="evenodd" d="M364.558 102.152C365.904 101.913 367.128 101.58 368.308 101.244C370.098 103.056 371.821 104.773 373.431 106.45C372.329 106.807 371.221 107.226 369.907 107.559C368.14 105.75 366.302 103.933 364.556 102.152H364.558Z" fill="#1A1A1A"/>
<path fill-rule="evenodd" clip-rule="evenodd" d="M358.995 103.264C360.57 102.924 362.098 102.564 363.616 102.323C365.402 104.096 367.273 106.084 369.08 107.961C367.714 108.333 366.381 108.877 365.002 109.417C363.041 107.304 360.969 105.296 358.995 103.262V103.264Z" fill="#1A1A1A"/>
<path fill-rule="evenodd" clip-rule="evenodd" d="M352.953 104.264C354.794 103.988 356.626 103.712 358.168 103.36C360.181 105.36 362.252 107.394 364.253 109.49C362.697 109.998 361.055 110.439 359.36 110.919C357.331 108.742 355.195 106.542 352.953 104.264Z" fill="#1A1A1A"/>
<path fill-rule="evenodd" clip-rule="evenodd" d="M346.062 105.581C348.181 105.253 350.127 104.884 351.985 104.492C354.304 106.85 356.477 109.114 358.506 111.259C356.801 111.747 354.956 112.355 353.062 112.927C350.683 110.41 348.482 108.097 346.062 105.579V105.581Z" fill="#1A1A1A"/>
<path fill-rule="evenodd" clip-rule="evenodd" d="M338.281 107.217C340.691 106.805 342.93 106.34 345.113 105.897C347.448 108.382 349.77 110.774 352.108 113.247C350.107 113.9 347.97 114.535 345.78 115.176C343.304 112.474 340.726 109.766 338.281 107.217Z" fill="#1A1A1A"/>
<path fill-rule="evenodd" clip-rule="evenodd" d="M328.439 108.646C331.206 108.094 333.854 107.68 336.317 107.321C338.845 109.842 341.41 112.602 343.922 115.296C341.592 115.853 339.076 116.452 336.567 117.281C333.804 114.244 331.173 111.423 328.438 108.646H328.439Z" fill="#1A1A1A"/>
<path fill-rule="evenodd" clip-rule="evenodd" d="M318.318 110.439C321.434 109.83 324.504 109.143 327.197 108.61C329.957 111.512 332.751 114.372 335.389 117.337C332.731 118.15 329.919 119.037 326.849 119.763C324.037 116.633 321.202 113.596 318.318 110.44V110.439Z" fill="#1A1A1A"/>
<path fill-rule="evenodd" clip-rule="evenodd" d="M306.286 112.588C309.896 111.96 313.476 111.416 316.568 110.524C319.48 113.738 322.456 116.979 325.218 120.135C322.148 121.024 318.925 121.928 315.511 122.788C312.39 119.283 309.402 115.965 306.285 112.588H306.286Z" fill="#1A1A1A"/>
<path fill-rule="evenodd" clip-rule="evenodd" d="M292.655 115.473C296.897 114.596 300.797 113.813 304.463 112.98C307.61 116.441 310.789 119.899 313.896 123.505C310.07 124.564 306.542 125.886 302.493 126.921C299.149 123.072 295.842 119.239 292.655 115.473Z" fill="#1A1A1A"/>
<path fill-rule="evenodd" clip-rule="evenodd" d="M276.9 119.082C281.861 118.109 286.257 117.19 290.689 116.225C293.997 120.026 297.298 123.895 300.603 127.678C296.464 129.047 292.08 130.387 287.481 131.759C283.842 127.321 280.384 123.148 276.9 119.082Z" fill="#1A1A1A"/>
<path fill-rule="evenodd" clip-rule="evenodd" d="M112.914 97.1102C116.037 94.6129 119.094 92.0927 121.888 89.792C126.402 92.3488 130.895 94.7303 135.434 97.4304C132.901 100.076 130.394 102.849 127.363 105.686C122.469 102.793 117.579 99.9156 112.916 97.1102H112.914Z" fill="#1A1A1A"/>
<path fill-rule="evenodd" clip-rule="evenodd" d="M266.098 91.9843C267.34 90.7326 268.553 89.5678 269.816 88.5707C271.574 89.8026 273.405 91.1153 275.214 92.364C274.091 93.5486 273.03 94.8217 271.891 96.2533C269.944 94.7973 268.003 93.3519 266.096 91.9843H266.098Z" fill="#1A1A1A"/>
<path fill-rule="evenodd" clip-rule="evenodd" d="M315.265 45.7406C315.748 45.0027 316.192 44.2343 316.6 43.4644C318.182 44.774 319.872 46.1919 321.53 47.5733C321.272 48.4591 320.906 49.2686 320.493 50.1362C318.758 48.6771 316.994 47.1936 315.266 45.7406H315.265Z" fill="#1A1A1A"/>
<path fill-rule="evenodd" clip-rule="evenodd" d="M58.4258 173.755C62.329 170.698 66.0103 167.769 69.5861 165.191C74.2421 166.624 78.8108 168.321 83.6045 169.941C80.1282 172.758 76.707 175.803 73.1909 179.084C68.1906 177.202 63.0756 175.507 58.4242 173.754L58.4258 173.755Z" fill="#1A1A1A"/>
<path fill-rule="evenodd" clip-rule="evenodd" d="M304.123 55.6569C304.507 55.2346 304.81 54.8229 305.111 54.4265C306.139 55.1736 307.174 55.9069 308.173 56.6388C307.942 57.0916 307.703 57.6237 307.435 58.0689C306.329 57.2684 305.264 56.4741 304.123 55.6554V55.6569Z" fill="#1A1A1A"/>
<path fill-rule="evenodd" clip-rule="evenodd" d="M268.693 36.3351C269.62 35.9403 270.499 35.5911 271.368 35.2694C272.679 36.1613 273.989 37.0837 275.329 38.0564C274.598 38.4971 273.794 38.8889 272.881 39.3951C271.516 38.3294 270.104 37.3338 268.693 36.3367V36.3351Z" fill="#1A1A1A"/>
<path fill-rule="evenodd" clip-rule="evenodd" d="M71.4887 72.5163C75.1639 71.0039 78.5806 69.6836 81.8274 68.4395C86.0259 70.1806 90.001 71.8485 93.8047 73.6171C90.8716 75.0823 87.7823 76.5825 84.3259 78.4273C79.8888 76.3584 75.577 74.3063 71.4887 72.5163Z" fill="#1A1A1A"/>
<path fill-rule="evenodd" clip-rule="evenodd" d="M283.723 33.978C284.283 33.7142 284.702 33.3681 285.146 33.1074C286.214 33.8057 287.232 34.5939 288.26 35.3547C287.883 35.6886 287.536 36.0835 287.082 36.3884C286.058 35.6063 284.892 34.7784 283.723 33.978Z" fill="#1A1A1A"/>
<path fill-rule="evenodd" clip-rule="evenodd" d="M307.086 28.218C307.383 28.0015 307.708 27.8353 308 27.6356C308.769 28.2318 309.613 28.8477 310.352 29.4164C310.096 29.6481 309.874 29.8829 309.646 30.1513C308.803 29.5155 307.928 28.8675 307.086 28.218Z" fill="#1A1A1A"/>
<path fill-rule="evenodd" clip-rule="evenodd" d="M363.498 86.9256C363.624 86.6055 363.789 86.2853 363.875 85.9773C364.49 86.3981 365.064 86.8784 365.679 87.3175C365.631 87.6895 365.546 88.0417 365.46 88.3938C364.767 87.9014 364.15 87.4135 363.498 86.9256Z" fill="#1A1A1A"/>
<path fill-rule="evenodd" clip-rule="evenodd" d="M55.603 122.148C58.2194 120.896 60.337 119.714 62.5709 118.583C65.8513 119.512 68.9925 120.352 72.123 121.26C70.2028 122.421 68.0286 123.773 65.7274 125.054C62.2985 124.121 58.94 123.105 55.603 122.148Z" fill="#1A1A1A"/>
<path fill-rule="evenodd" clip-rule="evenodd" d="M248.144 30.2793C249.062 30.0079 250 29.8219 250.794 29.5444C252.072 30.3784 253.421 31.2444 254.63 32.0479C253.86 32.3864 253.14 32.6745 252.289 32.9916C251.017 32.118 249.53 31.1545 248.144 30.2793Z" fill="#1A1A1A"/>
<path fill-rule="evenodd" clip-rule="evenodd" d="M281.974 9.6632C282.557 9.55495 283.14 9.46195 283.712 9.43298C284.673 10.0428 285.588 10.7396 286.508 11.4074C285.963 11.5019 285.415 11.6056 284.866 11.726C283.884 11.0064 282.929 10.3218 281.974 9.6632Z" fill="#1A1A1A"/>
<path fill-rule="evenodd" clip-rule="evenodd" d="M296.488 34.9187C297.018 34.751 297.54 34.6321 298.028 34.4827C298.849 35.0742 299.78 35.7237 300.643 36.3092C300.151 36.483 299.699 36.6446 299.204 36.8215C298.274 36.175 297.416 35.5667 296.487 34.9187H296.488Z" fill="#1A1A1A"/>
<path fill-rule="evenodd" clip-rule="evenodd" d="M385.782 103.248C385.932 103.004 386.044 102.812 386.196 102.568C386.681 102.901 387.164 103.236 387.609 103.549C387.501 103.8 387.43 104.037 387.279 104.241C386.792 103.925 386.266 103.585 385.782 103.248Z" fill="#1A1A1A"/>
<path fill-rule="evenodd" clip-rule="evenodd" d="M308.962 48.5215C309.492 48.3477 309.987 48.148 310.474 48.0199C311.248 48.5459 312.099 49.11 312.916 49.6345C312.425 49.8083 311.934 49.9913 311.476 50.1986C310.664 49.6452 309.812 49.0887 308.962 48.5215Z" fill="#1A1A1A"/>
<path fill-rule="evenodd" clip-rule="evenodd" d="M226.599 55.7971C227.748 55.4968 228.85 55.1903 229.908 54.9067C231.302 55.6584 232.659 56.3734 234.13 57.1602C233.042 57.4087 231.974 57.7487 230.908 58.0643C229.521 57.2897 228.004 56.5213 226.599 55.7971Z" fill="#1A1A1A"/>
<path fill-rule="evenodd" clip-rule="evenodd" d="M389.492 97.9777C389.635 97.7292 389.82 97.5142 389.964 97.3221C390.44 97.6255 390.879 97.9427 391.319 98.2979C391.177 98.5098 391.032 98.7309 390.889 98.9779C390.409 98.6379 389.93 98.2979 389.492 97.9777Z" fill="#1A1A1A"/>
<path fill-rule="evenodd" clip-rule="evenodd" d="M321.781 60.4274C322.272 60.2552 322.768 60.028 323.219 59.8466C323.98 60.3543 324.665 60.8193 325.391 61.3148C324.978 61.5069 324.561 61.7234 324.105 61.9551C323.343 61.4276 322.578 60.9672 321.781 60.4259V60.4274Z" fill="#1A1A1A"/>
<path fill-rule="evenodd" clip-rule="evenodd" d="M315.548 40.2458C315.978 40.1345 316.399 40.0919 316.826 40.0126C317.451 40.4395 318.108 40.9167 318.738 41.3177C318.386 41.3939 317.958 41.5037 317.6 41.6256C316.905 41.1454 316.246 40.6819 315.548 40.2474V40.2458Z" fill="#1A1A1A"/>
<path fill-rule="evenodd" clip-rule="evenodd" d="M2.86102e-05 150.239C3.49163 149.187 7.18365 147.939 10.9155 146.854C14.3719 147.595 18.1053 148.123 21.6152 148.771C18.2598 149.799 14.6259 151.003 11.2689 152.197C7.34738 151.537 3.71961 150.928 2.86102e-05 150.241V150.239Z" fill="#1A1A1A"/>
<path fill-rule="evenodd" clip-rule="evenodd" d="M268.333 15.9492C269.103 15.9797 269.796 15.9873 270.489 15.9934C271.302 16.5103 272.149 17.05 273.024 17.6278C272.334 17.5958 271.702 17.6538 271.006 17.6477C270.131 17.0714 269.254 16.4889 268.335 15.9492H268.333Z" fill="#1A1A1A"/>
<path fill-rule="evenodd" clip-rule="evenodd" d="M379.913 101.024C380.149 100.849 380.384 100.667 380.539 100.5C380.978 100.78 381.458 101.1 381.859 101.356C381.705 101.544 381.511 101.704 381.316 101.905C380.836 101.58 380.394 101.309 379.913 101.026V101.024Z" fill="#1A1A1A"/>
<path fill-rule="evenodd" clip-rule="evenodd" d="M172.443 82.3365C174.181 81.9127 176.043 81.6596 177.817 81.2754C179.564 81.8837 181.154 82.4158 182.716 83.0409C181.106 83.3367 179.363 83.7529 177.544 84.1691C175.844 83.541 174.099 82.9372 172.445 82.3365H172.443Z" fill="#1A1A1A"/>
<path fill-rule="evenodd" clip-rule="evenodd" d="M178.377 113.924C179.945 112.944 181.496 111.968 183.057 111.119C185.242 111.959 187.47 112.947 189.713 113.899C188.261 114.868 186.818 115.811 185.36 116.912C182.929 115.808 180.626 114.883 178.377 113.922V113.924Z" fill="#1A1A1A"/>
<path fill-rule="evenodd" clip-rule="evenodd" d="M384.867 109.018C385.017 108.586 385.126 108.146 385.236 107.769C385.85 108.21 386.506 108.697 387.164 109.205C387.098 109.646 387.031 110.146 386.927 110.597C386.266 110.077 385.567 109.548 384.867 109.016V109.018Z" fill="#1A1A1A"/>
<path fill-rule="evenodd" clip-rule="evenodd" d="M216.351 74.9176C217.765 74.1096 219.068 73.3884 220.278 72.6855C222.139 73.7177 224.078 74.8139 226.015 75.93C224.797 76.6786 223.709 77.5781 222.352 78.3511C220.292 77.1939 218.326 76.0428 216.351 74.9176Z" fill="#1A1A1A"/>
</g>
<defs>
<clipPath id="clip0_181_1072">
<rect width="398" height="217" fill="white" transform="matrix(-1 0 0 1 398 0)"/>
</clipPath>
</defs>
</svg>
