<svg xmlns="http://www.w3.org/2000/svg" width="474" height="258" fill="none"><g fill="#1A1A1A" fill-rule="evenodd" clip-path="url(#a)" clip-rule="evenodd"><path d="M116.016 3.905c.348-.499.851-.318.538-2.475-1.172-3.533.321.664.182.064-.173 1.042-.812.534-1.204.478.12.468.282 1.222.484 1.933ZM41.607 220.082c-2.71-4.505-4.92-9.459-7.088-13.878-1.154 1.78-4.46 21.257-9.026 51.796h9.88c2.992-22.418 5.217-36.319 6.234-37.918ZM33.147 207.161c-2.19-4.182-4.226-8.164-6.285-11.19-1.121 1.623-5.12 25.496-10.62 62.029h8.93c3.997-29.987 6.901-49.122 7.975-50.839Z"/><path d="M25.876 194.757a452.43 452.43 0 0 0-5.349-7.503c-2.06 11.918-4.147 23.679-6.15 35.368a9243.938 9243.938 0 0 0-6.004 35.353l.131.023h8.029c2.992-20.772 6.17-41.924 9.343-63.243v.002ZM19.804 186.018c-1.542-2.46-3.012-4.648-4.412-6.709-2.653 13.084-5.302 26.025-7.853 38.717A8443.93 8443.93 0 0 0 0 255.95v.509c2.314.437 4.692.87 7.134 1.266 1.992-11.767 4.098-23.718 6.223-35.772 2.088-11.852 4.311-23.817 6.447-35.935ZM14.696 178.395c-1.319-1.97-2.358-3.959-3.276-6.071-3.229 14.069-6.496 28.014-9.52 41.74l-1.9 8.63v27.809a7558.671 7558.671 0 0 1 6.66-32.999c2.61-12.845 5.308-25.934 8.038-39.107l-.002-.002ZM10.748 171.527c-1.12-1.769-2.123-3.45-3.009-5.3-2.6 10.542-5.193 20.994-7.739 31.343v20.877l1.093-4.847a6498.982 6498.982 0 0 1 9.655-42.071v-.002ZM7.243 165.456c-.885-1.461-1.49-3.178-2.092-4.885A8421.8 8421.8 0 0 0 0 179.963v14.607c2.398-9.6 4.833-19.311 7.243-29.112v-.002ZM4.505 160.112c-.6-1.484-1.141-3.007-1.526-4.477L0 166.236v10.794a7860.457 7860.457 0 0 1 4.505-16.918ZM2.735 154.469a69.105 69.105 0 0 1-1.193-4.029L0 155.706v8.469l2.735-9.706ZM1.436 149.675c-.277-1.298-.401-2.603-.576-3.863L0 148.667v5.88l1.436-4.872ZM.789 145.335c-.122-1.242-.04-2.636.087-3.959L0 144.202v3.74l.789-2.607ZM.928 140.468c.012-1.051.233-2.278.453-3.578L0 141.324v2.122l.928-2.978ZM1.403 136.558c.208-1.108.558-2.173.96-3.382l-2.361 7.602v.252l1.403-4.472h-.002Z"/><path d="M2.593 132.461c.488-1.051 1.028-2.202 1.405-3.101-1.328 4.305-2.664 8.61-3.998 12.906v-1.464c.871-2.779 1.738-5.556 2.593-8.341ZM4.413 128.675c.573-.999 1.334-2.123 2.092-3.184-2.172 7.108-4.35 14.212-6.507 21.296v-3.807a5260.83 5260.83 0 0 0 4.413-14.305h.002ZM117.662 258c-5.254-5.105-10.247-9.854-14.985-14.701-2.915 4.791-5.964 9.734-9.005 14.701h23.99ZM99.973 240.85c-5.423-5.699-10.454-10.423-15.188-14.786a597.443 597.443 0 0 0-15.534 22.455c2.337 2.865 4.724 6.08 7.223 9.483H89.25c3.601-5.886 7.173-11.576 10.722-17.152ZM82.567 223.727c-4.69-4.187-8.821-8.168-12.832-11.998-4.689 6.285-9.5 12.988-14.19 19.601 3.581 4.577 7.533 9.257 11.599 14.429 5.168-7.474 10.117-14.719 15.423-22.032ZM67.793 209.967c-3.7-3.239-7.246-6.528-10.566-9.582-4.156 5.505-8.467 10.853-12.835 16.557a355.69 355.69 0 0 1 9.448 12.174c4.656-6.418 9.362-13.04 13.955-19.149h-.002ZM45.703 189.148c-2.545-2.521-5.05-4.771-7.47-6.946-3.432 4.062-7.18 8.53-10.6 12.85 1.938 2.607 4.189 5.391 6.432 8.563 3.896-5.101 7.7-9.549 11.638-14.467ZM36.825 181.455c-2.163-2.117-4.351-4.039-6.254-6.185-3.068 3.62-6.286 7.351-9.277 10.97 1.631 2.446 3.45 4.897 5.349 7.509 3.318-4.068 6.855-8.312 10.182-12.294ZM29.194 174.034c-1.758-1.945-3.444-3.716-5.058-5.476a684.839 684.839 0 0 0-8.355 9.71c1.288 2.018 2.81 4.063 4.404 6.314 2.989-3.582 6.15-7.169 9.011-10.548h-.002ZM23.12 167.577c-1.536-1.508-2.902-3.078-4.362-4.534-2.429 2.736-4.99 5.538-7.423 8.274 1.024 1.97 2.22 3.906 3.321 5.989a496.335 496.335 0 0 0 8.465-9.729ZM18.191 162.282c-1.284-1.385-2.454-2.993-3.462-4.425-2.261 2.44-4.388 4.844-6.804 7.442.993 1.751 1.997 3.406 3.06 5.204 2.374-2.65 4.828-5.4 7.208-8.221h-.002ZM14.08 156.73c-1.093-1.275-2.031-2.484-3.012-3.731-2.097 2.275-4.167 4.615-5.979 6.609.604 1.576 1.424 3.055 2.089 4.748 2.254-2.542 4.592-5.157 6.904-7.626h-.002ZM10.677 152.606c-.87-1.242-1.578-2.589-2.338-3.678-1.67 1.737-3.355 3.658-4.999 5.514.489 1.441.926 2.973 1.524 4.458 1.917-2.112 3.825-4.226 5.813-6.294ZM8.016 148.19c-.753-1.042-1.201-2.246-1.646-3.364a291.767 291.767 0 0 0-4.375 4.644c.277 1.323.709 2.626.982 4.187 1.64-1.774 3.43-3.772 5.04-5.467h-.001ZM6.045 144.342c-.34-1.166-.733-2.146-1.072-3.245-1.286 1.342-2.43 2.656-3.781 4.073.178 1.204.353 2.502.63 3.754a376.968 376.968 0 0 1 4.223-4.58v-.002Z"/><path d="M4.814 140.312c-.19-1.075-.43-2.027-.468-3.163-1.177 1.274-2.205 2.389-3.184 3.426-.127 1.341-.096 2.516-.025 3.83a393.229 393.229 0 0 0 3.677-4.091v-.002ZM22.151 110.771c1.487-.8 2.883-1.552 4.414-2.165-.002.22.043.352.182.337-1.625.762-3.348 1.77-4.7 2.493.006-.296.006-.381.104-.665ZM4.164 133.29c.2-1.023.346-2.003.583-2.864a49.285 49.285 0 0 0-2.066 2.211c-.354 1.157-.704 2.288-1.063 3.459.97-1.028 1.686-1.851 2.544-2.806h.002ZM5.022 129.65c.335-.946.712-1.907 1.09-2.832-.6.691-1.052 1.289-1.653 1.956-.627 1.11-1.113 2.165-1.605 3.327a59.08 59.08 0 0 1 2.17-2.451h-.002ZM12.129 118.46a25.935 25.935 0 0 1 2.73-2.483c-.243.337-.487.69-.682.975-1.053.937-2.06 1.807-3.023 2.703.34-.376.537-.657.975-1.195ZM171.669 249.556c-9.178-6.179-17.125-12.032-25.418-17.412-4.946 8.392-10.086 16.689-15.278 25.858h36.179a572.027 572.027 0 0 1 4.517-8.446ZM142.534 229.76c-7.295-5.143-14.117-10.068-20.431-14.582-5.296 7.884-10.54 15.738-15.763 24.079 6.13 5.675 12.404 11.994 19.575 18.13 5.497-9.663 11.212-18.683 16.619-27.627ZM119.081 213.074c-6.05-3.502-11.403-7.365-16.609-10.961-4.804 6.431-9.766 13.174-14.562 20.209 4.884 4.577 9.893 9.249 15.507 14.607 5.35-8.393 10.351-16.3 15.664-23.855ZM100.101 200.2c-5.015-3.23-9.587-6.504-13.991-9.254a370.35 370.35 0 0 0-13.576 18.113c4.1 3.602 8.47 7.116 13.186 11.152 4.616-6.722 9.545-13.402 14.381-20.011ZM84.01 189.605c-4.194-2.489-7.984-5.139-11.744-7.303-4.18 4.914-8.187 10.024-12.456 15.514 3.356 2.926 7.05 5.91 10.756 9.225 4.432-5.813 9.026-11.971 13.445-17.436ZM34.016 105.804c-.975-.1-1.857-.205-2.644-.357-1.615 1.59-3.096 3.072-4.678 4.58.789.109 1.532.367 2.37.562 1.63-1.537 3.202-3.136 4.952-4.785ZM59.12 173.434c-2.968-1.775-5.656-3.655-8.418-5.38-3.422 4.067-6.947 8.155-10.405 12.312 2.465 1.984 5.022 4.181 7.774 6.389a990.285 990.285 0 0 1 11.05-13.321ZM49.16 167.501c-2.461-1.728-4.945-3.283-7.307-4.873-2.939 3.388-6.013 6.932-8.963 10.51 2.008 2.004 4.142 3.901 6.361 5.966 3.26-3.769 6.58-7.693 9.91-11.603ZM40.383 161.688c-2.218-1.347-4.004-2.922-5.976-4.206-2.8 3.125-5.627 6.218-8.276 9.301 1.614 1.69 3.406 3.339 5.326 5.19 3.053-3.72 6.032-7.066 8.924-10.285h.002ZM33.292 156.625c-1.848-1.295-3.526-2.607-5.29-3.62-2.447 2.65-5.018 5.409-7.619 8.51 1.407 1.461 2.881 2.888 4.527 4.548 2.702-3.06 5.581-6.384 8.382-9.438ZM27.379 152.448c-1.545-1.227-3.029-2.26-4.3-3.449-2.242 2.427-4.554 4.943-6.787 7.307 1.165 1.374 2.338 2.893 3.73 4.381 2.44-2.855 4.908-5.547 7.357-8.241v.002ZM22.17 148.185c-1.358-.885-2.454-2.065-3.543-3.078a257.605 257.605 0 0 0-6.42 6.951c1.139 1.034 2.024 2.413 3.072 3.669 2.234-2.478 4.65-5.095 6.89-7.541v-.001ZM18.03 144.788c-1.183-.861-1.956-2.009-2.925-2.993a283.328 283.328 0 0 0-5.476 5.862c.864 1.081 1.627 2.288 2.498 3.535 1.966-2.141 3.918-4.287 5.902-6.404ZM9.734 135.273c-.395-.943-.745-1.78-1.046-2.645a1015.673 1015.673 0 0 0-3.53 3.745c.19 1.008.484 1.936.573 3.116 1.425-1.47 2.697-2.855 4.005-4.214l-.002-.002ZM8.364 132.324c-.1-1.008-.403-1.699-.457-2.542-.95.99-1.954 2.059-2.91 3.102-.05.96.043 1.965.14 2.922 1.064-1.166 2.123-2.351 3.227-3.482ZM8.054 126.472c.079-.627.308-1.551.48-2.246-.642.709-1.338 1.508-1.932 2.161a19.447 19.447 0 0 0-1.088 2.855c.846-.861 1.647-1.807 2.539-2.768l.001-.002ZM9.672 121.734c.354-.609.9-1.523 1.637-2.431-.392.513-.882 1.066-1.083 1.461a54.093 54.093 0 0 0-2.225 2.85c.496-.59 1.134-1.275 1.673-1.88h-.002ZM14.643 115.438c.673-.741 1.385-1.399 2.047-1.988-.43.556-.815 1.084-1.243 1.541-.811.752-1.625 1.566-2.343 2.216a65.61 65.61 0 0 0 1.541-1.769h-.002Z"/><path d="M12.892 119.192c.113-.565.368-1.174.481-1.745a62.327 62.327 0 0 1-2.084 2.325c-.255.662-.613 1.385-.877 2.1.782-.832 1.656-1.722 2.48-2.68ZM323.394 162.686c-14.964-3.15-28.715-6.255-41.665-9.21-4.991 8.05-10.086 15.738-14.857 23.988 12.563 3.496 26.422 8.003 41.769 12.592 4.993-9.5 9.833-18.487 14.755-27.37h-.002ZM237.095 153.596c-10.447-2.317-19.638-4.601-28.786-6.328-4.486 6.076-9.372 12.369-14.243 18.968a2000.581 2000.581 0 0 1 28.362 8.844c4.69-7.236 9.796-14.669 14.667-21.486v.002ZM224.804 106.304c-8.321-.333-16.105-.837-23.617-1.236-4.225 4.615-8.362 9.116-12.338 13.793 7.285.661 15.023 1.502 23.254 2.706 4.107-5.271 8.207-10.376 12.701-15.263ZM269.011 258c-10.665-5.658-20.646-11.009-30.045-16.166A902.872 902.872 0 0 0 230.928 258H269.011ZM232.581 238.522c-12.245-6.513-23.035-12.792-33.591-18.411-5.538 9.582-11.21 19.887-16.856 30.172 3.455 2.556 6.972 5.119 10.578 7.717h30.364a2985.676 2985.676 0 0 1 9.505-19.478ZM194.106 217.589c-9.557-4.691-18.38-9.049-26.486-13.368-5.222 7.93-10.786 16.443-15.809 25.225 7.895 5.471 16.389 11.085 25.728 17.132 5.395-10.129 11.028-19.539 16.567-28.989ZM163.183 203.017c-7.896-4.039-15.092-7.57-21.914-10.943-4.703 6.685-9.665 13.602-14.653 20.637 6.551 4.463 13.723 9.383 21.277 14.558 5.182-8.73 10.18-16.452 15.29-24.254v.002ZM137.061 189.614c-6.305-2.908-12.258-5.743-17.896-8.563-4.499 5.766-9.018 11.851-13.543 18.103 5.337 3.696 10.923 7.227 17.02 10.753 4.725-6.685 9.61-13.526 14.419-20.291v-.002ZM115.905 179.399c-5.124-2.896-10.03-5.033-14.897-7.151a2036.81 2036.81 0 0 1-13.047 16.467c4.603 2.583 9.415 5.581 14.266 8.911 4.494-6.161 9.188-12.337 13.678-18.227ZM98.878 171.656c-4.324-2.094-8.593-4.063-12.75-5.805-3.68 4.644-7.575 9.272-11.418 13.902 3.774 2.336 7.77 4.853 11.823 7.55 4.169-5.301 8.378-10.604 12.343-15.647h.002ZM71.408 158.918c-3.435-1.247-6.434-2.645-9.414-4.021a928.478 928.478 0 0 0-9.608 10.976c2.706 1.746 5.337 3.626 8.566 5.281a550.368 550.368 0 0 1 10.456-12.238v.002ZM60.41 154.252c-2.893-1.371-5.506-2.735-8.077-3.745-2.985 3.239-5.748 6.393-8.836 9.895 2.354 1.532 4.778 3.011 7.283 4.706 3.282-3.678 6.365-7.298 9.63-10.856ZM51.052 150.003c-2.346-1.104-4.474-2.25-6.683-3.207-2.804 3.002-5.59 5.948-8.085 8.92 1.82 1.342 3.962 2.627 6.072 4.007a1435.07 1435.07 0 0 0 8.694-9.72h.002ZM42.76 146.377c-2.139-.96-4.058-1.865-5.916-2.902-2.224 2.402-4.862 5.225-7.12 7.808 1.611 1.165 3.44 2.325 5.29 3.64 2.5-2.903 5.186-5.761 7.746-8.546ZM35.816 142.952c-1.786-.794-3.566-1.579-5.133-2.379-2.18 2.313-4.275 4.601-6.442 6.861 1.372 1.037 2.956 1.994 4.45 3.274 2.36-2.665 4.65-5.21 7.125-7.755v-.001ZM30.225 140.131c-1.558-.742-2.906-1.57-4.395-2.241-1.886 1.933-3.883 4.059-5.895 6.147 1.243.932 2.444 1.983 3.801 3.055 2.114-2.326 4.31-4.601 6.49-6.961ZM25.187 137.238c-1.184-.876-2.36-1.699-3.531-2.317a949.473 949.473 0 0 0-5.44 5.746c.92.99 1.947 1.909 3.029 2.888 2.012-2.161 4.007-4.22 5.942-6.319v.002ZM20.974 134.479c-1.066-.58-2.077-1.189-2.94-1.951-1.636 1.731-3.13 3.298-4.886 5.172a54.742 54.742 0 0 0 2.387 2.516c1.758-1.827 3.504-3.625 5.439-5.737ZM184.164 128.113c-6.964-.958-13.601-1.775-20.043-2.783-4.018 4.82-8.065 9.468-12.325 14.306 6.139 1.294 12.674 2.516 19.634 4.234 4.275-5.391 8.561-10.58 12.736-15.757h-.002ZM54.92 103.297c-1.895.014-3.691.018-5.39.047-1.99 1.994-4.041 3.939-5.96 5.875 1.658-.029 3.096.248 4.91.313a243.058 243.058 0 0 1 6.442-6.237l-.002.002ZM54.621 97.103c-1.718.208-3.347.366-4.925.495a1673.62 1673.62 0 0 0-5.585 5.266c1.452.009 2.952-.01 4.499-.071 1.939-1.845 4-3.792 6.011-5.69ZM384.671 258a2167.944 2167.944 0 0 1-14.881-6.332 330.247 330.247 0 0 0-2.398 6.332h17.28-.001ZM180.427 82.625c-6.006.313-11.71.589-17.142.846-3.349 3.321-6.664 6.69-10.082 9.905 5.434.032 10.871-.044 16.72-.123 3.393-3.597 6.985-7.113 10.502-10.628h.002ZM297.052 221.081a2038.41 2038.41 0 0 0-42.64-16.877c-5.197 9.6-10.761 19.916-15.834 30.969a1547.458 1547.458 0 0 0 42.145 21.219c5.184-12.009 10.784-23.908 16.327-35.311h.002ZM210.512 187.045c-9.671-3.592-18.877-6.788-27.412-9.933a744.48 744.48 0 0 0-14.964 22.262c8.158 4.172 17.143 8.411 26.326 12.698 5.35-8.393 10.689-17.033 16.048-25.025l.002-.002ZM151.825 166.892c-6.682-2.261-12.779-4.325-18.585-6.452-4.209 5.181-8.614 10.81-12.84 16.596 5.529 2.668 11.581 5.499 17.691 8.425 4.417-6.428 9.175-12.727 13.736-18.569h-.002ZM129.924 159.413a533.059 533.059 0 0 0-15.688-4.996c-4.162 4.91-8.202 9.895-12.364 14.853 4.727 2.018 9.543 4.044 14.753 6.566 4.514-5.79 8.838-11.366 13.299-16.423ZM112.095 153.871a956.093 956.093 0 0 1-13.463-4.43c-3.654 4.329-7.309 8.583-11.045 12.997 4.04 1.807 8.306 3.836 12.647 5.79 4.063-4.896 8.076-9.734 11.859-14.359l.002.002ZM95.735 148.562c-3.931-1.184-7.781-2.322-11.298-3.455-3.674 4.091-7.162 7.898-10.602 11.989 3.298 1.3 6.848 2.773 10.735 4.63 3.666-4.657 7.53-9.02 11.165-13.164ZM82.713 144.741c-3.573-.985-6.775-2.112-9.993-3.037a316.511 316.511 0 0 0-9.363 10.605c2.907 1.27 5.895 2.682 9.365 3.859 3.222-3.678 6.642-7.661 9.99-11.427h.001ZM71.007 141.153c-3.08-.828-5.979-1.546-8.716-2.345-2.888 3.148-5.86 6.246-8.602 9.33 2.505.951 5.251 2.073 7.977 3.42 3.049-3.569 6.187-6.964 9.341-10.405ZM61.03 138.412a115.979 115.979 0 0 1-7.495-2.313c-2.67 2.873-5.364 5.738-7.88 8.531a104.382 104.382 0 0 0 6.807 2.946c2.852-3.017 5.671-6.118 8.57-9.164h-.002ZM51.897 135.811c-2.31-.699-4.362-1.488-6.345-2.112-2.454 2.46-4.87 4.982-7.26 7.427 1.759 1.09 3.774 2.074 5.956 2.955a693.55 693.55 0 0 1 7.651-8.27h-.002ZM44.094 133.58c-1.92-.662-3.83-1.218-5.681-1.728-2.025 2.118-4.259 4.431-6.312 6.68 1.663.685 3.287 1.465 5.069 2.226 2.241-2.351 4.567-4.715 6.924-7.18v.002ZM37.908 131.466a74.181 74.181 0 0 0-4.812-1.793c-1.935 2.003-4.026 4.244-5.935 6.267 1.44.723 2.835 1.494 4.338 2.237 2.103-2.226 4.292-4.416 6.411-6.709l-.002-.002ZM32.354 129.222c-1.47-.548-2.79-1.032-4.153-1.447-1.89 1.869-3.741 3.696-5.556 5.643 1.217.586 2.393 1.295 3.623 2.07 2.01-2.059 4.005-4.191 6.084-6.266h.002ZM139.407 122.794c-5.219-.533-10.243-.937-15.061-1.464-3.563 3.833-7.196 7.76-10.821 11.632 4.649.779 9.29 1.713 14.502 2.768 3.801-4.396 7.562-8.768 11.38-12.936ZM122.157 120.981c-4.543-.571-8.982-.957-12.969-1.488a398.77 398.77 0 0 0-10.186 10.833c3.947.765 8.02 1.537 12.418 2.24 3.492-3.757 7.173-7.763 10.737-11.585ZM107.21 119.274c-4.144-.399-7.86-.752-11.464-1.098a976.629 976.629 0 0 0-9.512 9.819c3.466.653 7.05 1.312 10.824 2.112 3.284-3.702 6.748-7.356 10.152-10.833ZM94.046 117.98c-3.528-.338-6.878-.542-10.076-.838-2.928 2.955-6.042 6.223-8.868 9.131 3.044.513 6.237.893 9.508 1.408 2.987-3.116 6.316-6.513 9.437-9.701h-.001ZM82.405 117.028c-3.087-.342-5.971-.761-8.867-.875-2.72 2.706-5.507 5.523-8.256 8.434 2.595.448 5.357.961 8.337 1.514 2.866-3.06 5.905-6.124 8.786-9.073ZM72.197 116.105c-2.697-.257-5.184-.495-7.708-.661-2.655 2.565-5.323 5.204-7.63 7.655 2.213.442 4.581.899 7.198 1.227a205.445 205.445 0 0 1 8.138-8.221h.002ZM63.354 115.358c-2.418-.246-4.774-.404-6.885-.632-2.44 2.374-4.841 4.823-7.216 7.189 1.989.466 4.268.703 6.41 1.019 2.503-2.478 4.983-5.011 7.69-7.574v-.002ZM55.254 114.764c-2.145-.19-4.142-.381-6.035-.556a227.877 227.877 0 0 1-6.46 6.407c1.81.305 3.728.767 5.556 1.175 2.28-2.369 4.548-4.619 6.939-7.026ZM48.058 114.082c-1.833-.128-3.472-.342-5.15-.424a377.843 377.843 0 0 0-6.024 5.875c1.549.287 3.007.633 4.657.905 2.154-2.108 4.39-4.264 6.517-6.357v.001ZM41.946 113.488c-1.578-.191-2.963-.361-4.435-.49-1.912 1.866-3.834 3.673-5.719 5.614 1.294.314 2.686.542 4.131.908 1.972-2.017 4.028-4.049 6.025-6.032h-.002ZM36.891 112.964c-1.33-.219-2.467-.5-3.648-.723-1.728 1.727-3.51 3.478-5.115 5.101 1.042.31 2.23.609 3.327.975 1.79-1.789 3.665-3.606 5.436-5.353ZM32.49 112.088c-1.035-.204-2.16-.266-3.098-.518-1.636 1.613-3.283 3.212-4.794 4.753.844.285 1.691.595 2.683.861 1.65-1.617 3.436-3.292 5.211-5.096h-.002ZM20.723 113.06c-.32-.272-.587-.694-.815-.995-1.088 1.151-2.176 2.164-3.083 3.183-.017.5.158.943.379 1.37 1.192-1.18 2.287-2.307 3.517-3.558h.002Z"/><path d="M41.939 103.663c2.602-.551 5.159-1.104 8.094-1.684.691-.352 1.341-.513 2.172-.823-3.116.761-5.951 1.365-8.692 2.012-.641.433-1.07.234-1.574.495ZM59.654 100.757c3.685-.319 7.413-.31 11.471-.495.762-.07 1.622-.134 2.511-.404-4.238.404-8.121.314-11.868.539-.882.328-1.554.21-2.114.362v-.002ZM133.511 108.416c-4.699-.299-9.362-.466-13.573-.738a402.138 402.138 0 0 0-9.964 10.309c4.163.419 8.601.823 13.02 1.336a375.153 375.153 0 0 1 10.516-10.909l.001.002ZM117.889 107.56c-4.205-.067-8.198-.152-11.946-.313-3.041 3.121-6.387 6.389-9.334 9.505 3.546.348 7.399.619 11.377.943 3.221-3.402 6.616-6.841 9.903-10.133v-.002ZM104.137 107.232c-3.714-.09-7.203-.085-10.645-.167a201.95 201.95 0 0 0-8.67 8.792c3.232.176 6.576.41 10.062.818 2.9-3.102 6.201-6.385 9.255-9.445l-.002.002ZM91.888 106.966c-3.278-.067-6.334-.009-9.3-.105a506.327 506.327 0 0 0-8.184 8.026c2.793.123 5.716.475 8.847.814 2.853-2.911 5.767-5.918 8.637-8.735ZM81.157 106.793c-2.94.057-5.498-.081-8.178-.056-2.643 2.551-5.212 5.005-7.701 7.503 2.473.223 5.053.433 7.786.604 2.65-2.707 5.345-5.266 8.093-8.051ZM71.752 106.647c-2.624-.029-5.002-.038-7.376-.124a540.385 540.385 0 0 0-7.154 7.041c2.12.41 4.422.513 6.831.68 2.584-2.565 5.01-5.043 7.701-7.597h-.002ZM63.268 106.551c-2.216 0-4.468.099-6.389.047-2.223 2.079-4.5 4.305-6.751 6.437 1.933.114 3.923.275 6.024.523 2.273-2.354 4.727-4.662 7.116-7.007ZM145.287 95.89c-4.944.053-9.715.123-14.172.234-3.252 3.26-6.496 6.393-9.699 9.625 4.384.147 8.996.367 13.626.566a2498.63 2498.63 0 0 0 10.245-10.423v-.002ZM129.034 96.27c-4.351.015-8.562.206-12.48.334-3.08 2.993-6.181 5.986-9.168 8.959 3.811-.038 7.894.023 12.009.214 3.145-3.307 6.359-6.405 9.639-9.506ZM114.573 96.637c-3.858.076-7.593.228-11.121.386-2.812 2.703-5.674 5.491-8.54 8.422 3.38.023 6.924.091 10.579.147a516.845 516.845 0 0 1 9.08-8.955h.002ZM101.832 97.041c-3.51.2-6.54.261-9.741.443-2.843 2.641-5.423 5.177-8.155 7.816 3.05.014 6.154-.018 9.477.047 2.687-2.806 5.555-5.594 8.419-8.306ZM90.448 97.621c-2.915.056-5.77.138-8.611.305-2.632 2.536-5.15 4.943-7.592 7.312 2.546.129 5.285.147 8.266.082 2.637-2.65 5.275-5.134 7.937-7.699Z"/><path d="M80.44 97.97c-2.778.19-5.222.295-7.567.389-2.484 2.288-5.024 4.595-7.3 6.832 2.322.038 4.749.114 7.411.047a927.98 927.98 0 0 0 7.457-7.269ZM71.412 98.635c-2.471.204-4.658.319-6.887.45-2.272 2.151-4.648 4.368-6.844 6.586 2.098-.161 4.304-.19 6.608-.284 2.283-2.146 4.553-4.291 7.123-6.75v-.002ZM139.512 85.817c-4.524.257-8.806.433-12.947.77-3.068 2.926-6.031 5.757-9.027 8.806 4.086-.275 8.171-.304 12.599-.433a356.121 356.121 0 0 1 9.374-9.143h.001ZM124.493 86.88c-4.052.184-7.777.532-11.534.927-2.856 2.627-5.622 5.304-8.454 8.03 3.65-.304 7.204-.313 11.151-.436 2.974-2.908 5.962-5.866 8.837-8.522ZM111.224 87.954c-3.568.276-6.875.627-10.225.99-2.711 2.454-5.33 5.01-8.058 7.573 3.23-.328 6.4-.395 9.946-.656 2.659-2.569 5.485-5.219 8.337-7.907ZM99.368 89.062c-3.156.28-6.128.451-9.078.732a959.684 959.684 0 0 0-7.548 7.14c2.84-.147 5.64-.272 8.783-.413 2.686-2.53 5.175-4.99 7.843-7.46ZM88.823 89.972c-2.664.175-5.317.428-8.047.814-2.396 2.188-4.796 4.468-7.127 6.65 2.482-.12 5.055-.366 7.701-.433 2.579-2.413 5.059-4.7 7.473-7.031ZM72.622 92.487c-2.344.29-4.589.557-6.65.738-2.117 1.945-4.377 4.006-6.556 6.053 2.072-.185 4.206-.234 6.334-.366 2.163-2.123 4.501-4.267 6.872-6.423v-.002ZM64.708 93.334c-2.008.176-3.924.305-5.782.539-1.947 1.874-3.91 3.625-5.78 5.456 1.643-.024 3.52-.158 5.311-.214 2.001-1.865 4.171-3.897 6.25-5.78ZM134.618 77.52c-4.071.48-7.996.943-11.952 1.414a2236.381 2236.381 0 0 1-8.417 7.784c3.881-.504 7.524-.723 11.677-1.171 2.837-2.745 5.786-5.33 8.692-8.027ZM120.847 79.124c-3.624.395-7.265.909-10.726 1.342-2.567 2.422-5.242 4.867-7.923 7.374 3.39-.375 6.662-.638 10.32-.943 2.873-2.692 5.618-5.195 8.329-7.774v.001ZM108.465 80.66c-3.218.366-6.374.8-9.61 1.285-2.466 2.313-4.822 4.43-7.397 6.8 2.947-.282 5.955-.52 9.12-.73 2.63-2.52 5.349-5.024 7.887-7.355ZM97.446 82.164c-2.857.437-5.713.814-8.424 1.18-2.356 2.161-4.82 4.33-7.162 6.457 2.69-.275 5.338-.565 8.13-.88 2.582-2.337 5.025-4.549 7.456-6.757ZM80.282 85.204c-2.458.395-4.734.667-6.871.943-2.209 2.02-4.437 4.011-6.531 6.047 2.103-.22 4.255-.437 6.642-.742 2.221-2.064 4.433-4.09 6.76-6.246v-.002ZM71.825 86.754c-2.175.29-4.114.595-6.091.96-2.056 1.832-4.073 3.644-6.232 5.595 1.854-.243 3.86-.395 5.867-.562a288.102 288.102 0 0 1 6.458-5.995l-.002.002ZM143.352 67.89c-4.291.672-8.344 1.272-12.24 1.944-2.799 2.328-5.454 4.72-8.326 7.342 3.927-.6 7.892-1.028 11.943-1.552 2.888-2.668 5.74-5.2 8.621-7.736l.002.001ZM129.262 70.028c-3.836.66-7.498 1.175-11.092 1.797-2.489 2.307-5.097 4.533-7.739 6.951 3.486-.504 7.085-.946 10.724-1.499 2.666-2.421 5.33-4.782 8.107-7.249ZM139.197 61.452c-3.901.687-7.641 1.442-11.296 2.123-2.63 2.326-5.201 4.557-7.776 6.796 3.45-.591 7.195-1.162 11.123-1.83 2.595-2.307 5.303-4.692 7.951-7.089h-.002ZM181.633 63.894c-5.612.774-10.838 1.494-15.809 2.01-3.308 2.848-6.336 5.77-9.266 8.511 4.825-.404 9.964-.984 15.412-1.57 3.1-2.956 6.323-5.953 9.662-8.95l.001-.001ZM30.176 119.149c-1.192-.328-2.283-.676-3.326-.957-1.618 1.598-3.29 3.23-4.876 5.024.805.419 1.755.923 2.757 1.38 1.731-1.746 3.594-3.654 5.445-5.447ZM34.64 120.276c-1.397-.328-2.693-.685-3.937-1.007-1.9 1.921-3.716 3.768-5.445 5.523 1.006.551 2.114 1.066 3.324 1.593a264.116 264.116 0 0 1 6.059-6.109ZM39.828 121.453c-1.603-.285-3.061-.68-4.466-1.081-2.132 2.156-4.184 4.197-6.1 6.191 1.311.424 2.63.922 4.196 1.318 2.105-2.15 4.293-4.311 6.372-6.428h-.002ZM46.452 122.774c-1.875-.404-3.695-.832-5.503-1.118-2.126 2.108-4.355 4.472-6.507 6.703 1.627.442 3.214 1.09 4.856 1.731 2.336-2.512 4.804-4.899 7.154-7.318v.002ZM53.649 123.963c-2.193-.328-4.374-.656-6.21-1.075-2.399 2.379-4.864 4.797-7.248 7.289 1.854.604 3.809 1.128 5.828 1.699 2.416-2.589 4.96-5.204 7.63-7.913ZM61.856 125.53c-2.524-.39-4.842-.829-7.054-1.295a567.736 567.736 0 0 0-7.766 8.045c2.03.58 4.227 1.303 6.483 1.983 2.834-2.993 5.454-5.742 8.337-8.735v.002ZM71.122 127.475c-2.87-.49-5.536-1.043-8.136-1.57-2.781 2.954-5.547 5.799-8.332 8.739 2.384.776 4.93 1.532 7.537 2.293 2.948-3.212 6.019-6.432 8.93-9.462ZM82.844 129.173c-3.294-.656-6.448-1.147-9.382-1.575-3.01 2.998-6.065 6.279-9.057 9.482 2.775.662 5.771 1.374 8.76 2.36 3.29-3.611 6.423-6.964 9.681-10.267h-.002ZM94.899 131.305c-3.712-.723-7.368-1.541-10.575-2.174-3.287 3.45-6.615 6.851-9.756 10.376 3.165.966 6.514 2.021 10.17 2.884 3.349-3.721 6.726-7.332 10.16-11.084v-.002ZM109.227 133.861c-4.299-.747-8.563-1.394-12.246-2.455-3.467 3.821-7.012 7.675-10.3 11.428 3.655 1.056 7.494 2.131 11.56 3.154a905.517 905.517 0 0 1 10.988-12.127h-.002ZM125.461 137.29c-5.051-1.042-9.696-1.974-14.062-2.963-3.749 4.114-7.535 8.226-11.234 12.513 4.555 1.26 8.757 2.831 13.579 4.062 3.983-4.577 7.921-9.134 11.717-13.612ZM144.224 141.581a784.663 784.663 0 0 1-16.422-3.397c-3.939 4.519-7.87 9.12-11.806 13.617 4.929 1.628 10.15 3.221 15.628 4.853 4.333-5.277 8.451-10.238 12.6-15.073ZM339.524 115.458c-3.719-2.969-7.36-5.965-10.687-8.701-5.376 3.04-10.728 5.872-16.132 9.082 3.015 3.145 6.002 6.442 9.612 9.816 5.827-3.441 11.651-6.861 17.205-10.197h.002ZM157.089 109.364c-1.479-1.488-2.924-2.873-4.428-4.059-2.093 1.465-4.275 3.026-6.429 4.51 1.338 1.409 2.601 2.922 3.958 4.624a435.58 435.58 0 0 1 6.901-5.075h-.002ZM98.534 54.383a34.182 34.182 0 0 1-1.591-2.707c-1.884 1.558-3.896 3.243-5.871 4.886.308 1.053.743 2.016 1.235 3.047l6.225-5.226h.002ZM404.418 206.585c-4.649-3.635-9.033-7.117-13.292-10.182-5.545 1.704-10.986 3.721-16.695 5.646 4.14 3.35 8.215 6.97 12.402 10.871 5.955-2.237 12.047-4.253 17.587-6.337l-.002.002ZM111.803 66.173c-.457-.503-.818-.992-1.177-1.463-1.224.888-2.456 1.76-3.646 2.63.275.538.559 1.17.878 1.7 1.318-.951 2.586-1.896 3.945-2.87v.003ZM153.999 43.2a70.788 70.788 0 0 0-3.186-1.267 189.276 189.276 0 0 0-4.717 3.314c.871.524 1.827.99 2.915 1.591 1.626-1.267 3.308-2.45 4.988-3.636V43.2ZM388.86 86.218c-4.377-1.799-8.447-3.368-12.313-4.848-5.001 2.07-9.735 4.054-14.265 6.156 3.493 1.742 7.173 3.526 11.289 5.72 5.284-2.46 10.42-4.9 15.289-7.028ZM136.099 40.398c-.667-.314-1.166-.725-1.694-1.035-1.272.83-2.484 1.767-3.709 2.672.449.397.862.866 1.403 1.229a97.162 97.162 0 0 1 4-2.866ZM108.273 33.55c-.353-.258-.739-.456-1.087-.693-.917.709-1.921 1.441-2.801 2.117.304.276.568.555.84.874 1.004-.756 2.046-1.526 3.048-2.299ZM41.09 103.349c-.15-.38-.347-.761-.449-1.127-.732.5-1.416 1.071-2.148 1.593.056.442.158.861.26 1.28.826-.586 1.56-1.166 2.336-1.746ZM407.78 145.226c-3.116-1.488-5.638-2.893-8.298-4.238-3.907 1.104-7.648 2.103-11.377 3.183 2.287 1.38 4.877 2.988 7.617 4.51 4.084-1.109 8.084-2.316 12.058-3.455ZM178.472 36c-1.094-.322-2.211-.544-3.157-.873-1.521.991-3.128 2.02-4.568 2.976a50.75 50.75 0 0 0 2.788 1.122A157.868 157.868 0 0 1 178.472 36ZM138.182 11.489c-.694-.129-1.389-.24-2.07-.274-1.144.725-2.234 1.554-3.329 2.348.648.112 1.301.235 1.955.378a149.28 149.28 0 0 1 3.444-2.452ZM120.896 41.516c-.63-.2-1.252-.34-1.833-.518-.979.703-2.087 1.475-3.114 2.171.585.207 1.124.4 1.713.61 1.108-.77 2.13-1.492 3.236-2.263h-.002ZM14.55 122.756c-.178-.29-.31-.518-.491-.808-.578.395-1.154.794-1.684 1.165.13.299.213.58.394.823.58-.375 1.206-.779 1.782-1.18ZM106.04 57.69c-.631-.207-1.221-.445-1.801-.597-.922.625-1.935 1.296-2.908 1.92a21.9 21.9 0 0 1 1.715.67c.967-.658 1.982-1.32 2.994-1.994ZM204.131 66.34c-1.369-.358-2.681-.722-3.942-1.06-1.66.894-3.276 1.745-5.027 2.68 1.295.295 2.567.7 3.837 1.075 1.651-.921 3.459-1.835 5.132-2.696ZM10.132 116.49c-.17-.296-.39-.551-.561-.78-.567.361-1.09.738-1.615 1.16.17.252.343.515.512.809.572-.404 1.143-.809 1.664-1.189ZM90.773 71.845c-.585-.205-1.176-.475-1.713-.69-.906.603-1.722 1.156-2.586 1.745.492.228.988.485 1.53.761.908-.627 1.82-1.175 2.769-1.818v.002ZM98.197 47.85c-.512-.133-1.013-.183-1.522-.278-.745.508-1.527 1.075-2.278 1.552.42.09.93.221 1.356.366.828-.57 1.613-1.122 2.444-1.638v-.002ZM474 178.626c-4.158-1.251-8.555-2.736-13-4.025-4.116.881-8.562 1.508-12.743 2.279a301.183 301.183 0 0 1 12.322 4.073c4.671-.785 8.991-1.508 13.421-2.326v-.001ZM154.427 18.963c-.916.036-1.742.045-2.567.052-.968.615-1.977 1.256-3.02 1.943.822-.038 1.575.031 2.404.024 1.042-.685 2.086-1.378 3.181-2.02h.002ZM21.54 120.111c-.28-.208-.56-.424-.745-.623-.523.333-1.095.714-1.572 1.019.184.222.415.413.647.652a31.193 31.193 0 0 1 1.67-1.046v-.002ZM268.629 97.893c-2.071-.504-4.288-.805-6.4-1.261-2.081.723-3.974 1.355-5.835 2.099 1.917.351 3.993.846 6.159 1.341 2.025-.747 4.104-1.465 6.074-2.179h.002ZM261.562 135.449c-1.868-1.166-3.716-2.326-5.574-3.336-2.602.999-5.256 2.174-7.927 3.307 1.729 1.151 3.448 2.273 5.184 3.582 2.896-1.313 5.638-2.413 8.317-3.555v.002ZM15.64 129.615c-.178-.513-.308-1.036-.439-1.484a85.503 85.503 0 0 0-2.296 1.707c.079.524.159 1.119.283 1.655.787-.618 1.62-1.247 2.452-1.879v.001ZM216.336 89.073c-1.684-.961-3.236-1.819-4.678-2.654a487.561 487.561 0 0 0-6.831 3.857c1.45.89 2.746 1.96 4.362 2.879 2.453-1.376 4.794-2.745 7.147-4.082Z"/></g><defs><clipPath id="a"><path fill="#fff" d="M0 0h474v258H0z"/></clipPath></defs></svg>