<svg width="284" height="522" viewBox="0 0 284 522" fill="none" xmlns="http://www.w3.org/2000/svg">
<path fill-rule="evenodd" clip-rule="evenodd" d="M279.702 127.765C280.251 128.148 280.051 128.702 282.426 128.357C286.315 127.066 281.695 128.71 282.356 128.557C281.209 128.367 281.767 127.662 281.829 127.231C281.314 127.363 280.484 127.542 279.702 127.765Z" fill="#1A1A1A"/>
<path fill-rule="evenodd" clip-rule="evenodd" d="M41.739 45.8205C46.6975 42.8365 52.1509 40.4023 57.0156 38.0142C55.0562 36.7439 33.6158 33.1037 -0.000267029 28.0747L-0.000267504 38.9554C24.6766 42.2505 39.9791 44.7008 41.739 45.8205Z" fill="#1A1A1A"/>
<path fill-rule="evenodd" clip-rule="evenodd" d="M55.9628 36.503C60.5662 34.0909 64.95 31.8493 68.2803 29.5817C66.4944 28.3475 40.2153 23.9426 0.000473022 17.8862L0.000472593 27.7214C33.01 32.1222 54.0732 35.321 55.9628 36.503Z" fill="#1A1A1A"/>
<path fill-rule="evenodd" clip-rule="evenodd" d="M69.6171 28.4962C72.5124 26.4633 75.262 24.5228 77.876 22.6063C64.7564 20.3367 51.8104 18.0389 38.9442 15.8335C25.8785 13.5899 12.8786 11.3765 0.0283585 9.22119L0.00241851 9.36567L0.00241813 18.2075C22.8674 21.5026 46.1515 25.0024 69.6191 28.4962L69.6171 28.4962Z" fill="#1A1A1A"/>
<path fill-rule="evenodd" clip-rule="evenodd" d="M79.2362 21.8095C81.9439 20.1118 84.3523 18.4923 86.6211 16.9512C72.2185 14.0293 57.9735 11.1115 44.0018 8.30199C29.8885 5.46643 15.9369 2.68304 2.25657 -3.68769e-06L1.69585 -3.7122e-06C1.21497 2.54859 0.738075 5.16742 0.303085 7.85649C13.2551 10.0499 26.4106 12.3697 39.6798 14.7096C52.7256 17.0093 65.8971 19.4576 79.2362 21.8095Z" fill="#1A1A1A"/>
<path fill-rule="evenodd" clip-rule="evenodd" d="M87.6271 16.1846C89.796 14.7317 91.985 13.5878 94.3096 12.5764C78.8235 9.02041 63.473 5.42228 48.364 2.09306L38.864 -2.4236e-06L8.25295 -3.76165e-06C20.2033 2.37601 32.3272 4.84232 44.5768 7.33473C58.716 10.2084 73.1247 13.1804 87.6251 16.1866L87.6271 16.1846Z" fill="#1A1A1A"/>
<path fill-rule="evenodd" clip-rule="evenodd" d="M95.187 11.8359C97.1345 10.6038 98.9842 9.49802 101.021 8.52273C89.4164 5.65908 77.911 2.80345 66.5194 -1.50813e-06L43.5387 -2.51265e-06L48.8743 1.20406C64.0312 4.62158 79.5273 8.19563 95.185 11.8359L95.187 11.8359Z" fill="#1A1A1A"/>
<path fill-rule="evenodd" clip-rule="evenodd" d="M101.871 7.97689C103.479 7.00161 105.368 6.33536 107.248 5.67313C100.089 3.76068 92.9711 1.87031 85.9015 -9.33087e-07L69.8228 -1.63591e-06C80.3903 2.6409 91.0795 5.32194 101.869 7.97689L101.871 7.97689Z" fill="#1A1A1A"/>
<path fill-rule="evenodd" clip-rule="evenodd" d="M107.752 4.96073C109.386 4.3005 111.062 3.70449 112.681 3.28106L101.012 -5.10066e-07L89.1292 -1.02947e-06C95.3029 1.63752 101.515 3.2911 107.752 4.96073Z" fill="#1A1A1A"/>
<path fill-rule="evenodd" clip-rule="evenodd" d="M113.964 3.01216C115.54 2.48237 117.049 2.06296 118.399 1.69772L112.603 -2.53376e-07L103.28 -6.60871e-07L113.964 3.01216Z" fill="#1A1A1A"/>
<path fill-rule="evenodd" clip-rule="evenodd" d="M119.242 1.58133C120.671 1.2763 122.107 1.13984 123.494 0.947193L120.351 -1.37373e-07L113.878 -4.20316e-07L119.242 1.58133Z" fill="#1A1A1A"/>
<path fill-rule="evenodd" clip-rule="evenodd" d="M124.019 0.868929C125.386 0.734476 126.92 0.824781 128.377 0.965254L125.266 -1.35977e-07L121.15 -3.15914e-07L124.019 0.868929Z" fill="#1A1A1A"/>
<path fill-rule="evenodd" clip-rule="evenodd" d="M129.377 1.02144C130.534 1.03549 131.885 1.27831 133.315 1.52113L128.435 -2.13342e-07L126.098 -3.15478e-07L129.377 1.02144Z" fill="#1A1A1A"/>
<path fill-rule="evenodd" clip-rule="evenodd" d="M133.68 1.54516C134.899 1.77393 136.072 2.15923 137.403 2.60272L129.035 0.00195276L128.757 0.00195275L133.68 1.54716L133.68 1.54516Z" fill="#1A1A1A"/>
<path fill-rule="evenodd" clip-rule="evenodd" d="M138.189 2.85563C139.347 3.39344 140.614 3.98744 141.604 4.40284C136.864 2.93991 132.125 1.46895 127.396 -6.21011e-07L129.009 -5.50537e-07C132.068 0.959234 135.125 1.91445 138.189 2.85563Z" fill="#1A1A1A"/>
<path fill-rule="evenodd" clip-rule="evenodd" d="M142.358 4.86044C143.458 5.49057 144.695 6.32939 145.862 7.16421C138.038 4.77214 130.219 2.37406 122.421 -0.00195415L126.611 -0.00195397C131.859 1.62353 137.117 3.25101 142.358 4.85843L142.358 4.86044Z" fill="#1A1A1A"/>
<path fill-rule="evenodd" clip-rule="evenodd" d="M9.03979e-05 129.577C5.61907 123.791 10.847 118.293 16.1826 113.075C10.9088 109.864 5.46742 106.507 9.15527e-05 103.158L9.03979e-05 129.577Z" fill="#1A1A1A"/>
<path fill-rule="evenodd" clip-rule="evenodd" d="M18.878 110.097C25.1515 104.125 30.3514 98.5844 35.1543 93.3709C27.0411 87.481 19.1653 82.0226 10.4356 76.2632C7.28287 78.8379 3.74306 81.4667 -0.00225865 84.218L-0.00225926 98.2895C6.47673 102.255 12.7402 106.188 18.878 110.097Z" fill="#1A1A1A"/>
<path fill-rule="evenodd" clip-rule="evenodd" d="M37.7262 90.9285C42.3355 85.7631 46.7174 81.2137 50.9336 76.7969C44.0156 71.6334 36.6367 66.3356 29.3576 61.1702C24.3193 65.1135 19.1672 69.4661 13.4744 73.9432C21.7013 79.6344 29.6769 85.0848 37.7262 90.9285Z" fill="#1A1A1A"/>
<path fill-rule="evenodd" clip-rule="evenodd" d="M52.8733 74.6576C56.4391 70.5839 60.0587 66.6787 63.4209 63.0224C57.3609 58.4449 51.4746 53.6969 45.1951 48.8867C41.0627 52.236 36.7008 55.6515 31.7942 59.2918C38.8598 64.4191 46.1489 69.6026 52.8733 74.6596L52.8733 74.6576Z" fill="#1A1A1A"/>
<path fill-rule="evenodd" clip-rule="evenodd" d="M75.7902 50.3318C78.5658 47.5283 81.0421 44.769 83.4365 42.104C78.9649 38.3253 74.0463 34.1974 69.2913 30.4307C66.4219 32.5659 63.357 35.0442 59.8651 37.5145C65.4801 41.805 70.3768 45.9951 75.7902 50.3318Z" fill="#1A1A1A"/>
<path fill-rule="evenodd" clip-rule="evenodd" d="M84.2592 40.5548C86.5898 38.1728 88.7049 35.7627 91.0674 33.6676C87.0826 30.2882 82.9761 26.7443 78.9914 23.4512C76.2996 25.2472 73.6019 27.25 70.7265 29.341C75.2041 32.9954 79.8753 36.8905 84.2592 40.5548Z" fill="#1A1A1A"/>
<path fill-rule="evenodd" clip-rule="evenodd" d="M92.428 32.1505C94.5691 30.2139 96.5185 28.3577 98.4561 26.5797C94.9422 23.4913 91.2288 20.3065 87.7668 17.3787C85.546 18.7974 83.2952 20.4731 80.8169 22.229C84.7598 25.5201 88.7086 29.0019 92.428 32.1525L92.428 32.1505Z" fill="#1A1A1A"/>
<path fill-rule="evenodd" clip-rule="evenodd" d="M99.535 25.4619C101.195 23.7702 102.923 22.2652 104.525 20.6577C101.514 17.9827 98.4295 15.1612 95.4185 12.4822C93.2495 13.61 91.1185 14.9284 88.8258 16.1405C92.3137 19.247 96.0111 22.4879 99.535 25.4619Z" fill="#1A1A1A"/>
<path fill-rule="evenodd" clip-rule="evenodd" d="M105.364 20.0337C106.888 18.6189 108.658 17.3305 110.234 16.2208C107.549 13.7304 104.903 11.3885 102.043 8.72754C100.116 9.82123 98.2941 10.927 96.3146 12.0969C99.2319 14.7117 102.259 17.4148 105.364 20.0357L105.364 20.0337Z" fill="#1A1A1A"/>
<path fill-rule="evenodd" clip-rule="evenodd" d="M111.476 15.5064C112.878 14.3023 114.209 13.2688 115.582 12.1892C113.078 9.87939 110.502 7.59971 108.307 5.60498C106.573 6.26922 104.945 7.17226 103.081 7.90473C105.879 10.3871 108.758 12.9618 111.476 15.5084L111.476 15.5064Z" fill="#1A1A1A"/>
<path fill-rule="evenodd" clip-rule="evenodd" d="M116.015 11.7577C117.382 10.8005 118.864 10.0198 120.063 9.18303C118.152 7.34483 116.037 5.48857 113.994 3.67847C112.407 4.21628 110.721 4.6979 109.087 5.35612C111.412 7.46724 113.738 9.56833 116.015 11.7577Z" fill="#1A1A1A"/>
<path fill-rule="evenodd" clip-rule="evenodd" d="M120.876 8.82786C122.023 7.99907 123.348 7.50541 124.579 7.01575C122.913 5.42038 121.169 3.75677 119.467 2.19751C118.01 2.50254 116.576 2.97814 114.858 3.27916C116.811 5.08525 119.01 7.05589 120.876 8.82987L120.876 8.82786Z" fill="#1A1A1A"/>
<path fill-rule="evenodd" clip-rule="evenodd" d="M125.112 6.65652C126.395 6.28326 127.474 5.8498 128.684 5.47654C127.207 4.05976 125.76 2.79951 124.2 1.3125C122.875 1.50916 121.446 1.70181 120.068 2.00684C121.847 3.62429 123.534 5.17552 125.11 6.65652L125.112 6.65652Z" fill="#1A1A1A"/>
<path fill-rule="evenodd" clip-rule="evenodd" d="M129.548 5.30197C130.732 5.09327 131.779 4.82838 133.03 4.78624C131.628 3.48987 130.4 2.35805 129.259 1.28042C127.782 1.13994 126.489 1.17406 125.043 1.25232C126.416 2.51257 128.08 3.99557 129.546 5.30197L129.548 5.30197Z" fill="#1A1A1A"/>
<path fill-rule="evenodd" clip-rule="evenodd" d="M162.067 24.3942C162.947 26.0317 163.775 27.5689 164.449 29.2546C164.208 29.2526 164.062 29.3027 164.078 29.4552C163.24 27.6652 162.131 25.7688 161.334 24.2798C161.66 24.2858 161.753 24.2858 162.067 24.3942Z" fill="#1A1A1A"/>
<path fill-rule="evenodd" clip-rule="evenodd" d="M137.278 4.58543C138.403 4.80618 139.483 4.96672 140.431 5.2276C139.776 4.56537 138.818 3.67838 137.996 2.95193C136.723 2.56261 135.478 2.17732 134.189 1.78198C135.321 2.84958 136.226 3.63824 137.278 4.58343L137.278 4.58543Z" fill="#1A1A1A"/>
<path fill-rule="evenodd" clip-rule="evenodd" d="M141.285 5.53063C142.326 5.89987 143.384 6.31528 144.401 6.73068C143.641 6.07045 142.983 5.57277 142.248 4.91054C141.027 4.22021 139.866 3.6844 138.587 3.14258C139.577 3.98341 140.347 4.64966 141.285 5.53264L141.285 5.53063Z" fill="#1A1A1A"/>
<path fill-rule="evenodd" clip-rule="evenodd" d="M153.602 13.3571C154.598 14.3123 155.514 15.3137 156.336 16.3632C155.965 16.0963 155.576 15.8274 155.262 15.6127C154.231 14.4528 153.273 13.345 152.287 12.2834C152.7 12.6587 153.01 12.8754 153.602 13.3571Z" fill="#1A1A1A"/>
<path fill-rule="evenodd" clip-rule="evenodd" d="M9.29434 189.053C16.0966 178.945 22.5396 170.194 28.4619 161.061C19.2233 155.615 10.0905 149.954 -0.00213623 144.236L-0.00213797 184.079C3.1306 185.722 6.22944 187.38 9.29434 189.053Z" fill="#1A1A1A"/>
<path fill-rule="evenodd" clip-rule="evenodd" d="M31.0859 156.967C36.7468 148.934 42.1682 141.421 47.1367 134.467C38.4588 128.636 29.8129 122.86 20.6321 117.109C14.3846 123.86 7.42873 130.769 0.674373 138.666C11.3117 144.72 21.2407 151.013 31.0859 156.967Z" fill="#1A1A1A"/>
<path fill-rule="evenodd" clip-rule="evenodd" d="M49.4535 131.14C53.3086 124.478 57.5607 118.582 61.5195 112.849C54.4399 107.559 47.0171 102.094 39.2731 96.8125C34.2348 102.191 29.0927 107.707 23.1943 113.89C32.4329 119.782 41.1368 125.289 49.4535 131.14Z" fill="#1A1A1A"/>
<path fill-rule="evenodd" clip-rule="evenodd" d="M63.6241 110.238C67.1799 104.715 70.7836 99.6802 73.8105 94.8298C67.7506 89.9754 60.8805 84.81 53.8727 79.8794C49.9079 84.3946 46.0389 89.2068 41.5972 94.4004C48.9961 99.4835 56.349 104.912 63.6241 110.238Z" fill="#1A1A1A"/>
<path fill-rule="evenodd" clip-rule="evenodd" d="M75.2878 92.5178C78.0274 87.8983 80.9447 83.7242 83.3271 79.5842C77.9177 74.9807 72.2927 70.5678 66.2487 65.866C63.0282 69.5624 59.7438 73.6301 56.0942 77.7119C62.4934 82.5924 69.2717 87.6514 75.2878 92.5178Z" fill="#1A1A1A"/>
<path fill-rule="evenodd" clip-rule="evenodd" d="M167.534 37.4604C167.643 36.3868 167.759 35.4155 167.927 34.5486C166.177 32.7706 164.545 31.1391 162.884 29.3972C162.765 30.2661 162.481 31.0849 162.266 32.008C163.958 33.8021 165.718 35.5339 167.534 37.4604Z" fill="#1A1A1A"/>
<path fill-rule="evenodd" clip-rule="evenodd" d="M93.0885 65.1076C95.0419 61.8386 97.1111 58.8786 99.0107 55.8363C94.5331 52.0676 90.0335 48.1865 85.4581 44.3777C83.2732 47.0928 80.8548 49.9083 78.4244 52.9385C83.357 56.9501 88.1818 60.9736 93.0885 65.1076Z" fill="#1A1A1A"/>
<path fill-rule="evenodd" clip-rule="evenodd" d="M99.6188 54.1386C101.52 51.4275 103.232 48.6923 104.982 46.0915C101.253 42.8546 97.3521 39.4692 93.4132 36.2202C91.2083 38.4317 89.1192 40.7816 86.8464 43.2258C90.9948 46.8159 95.3148 50.4723 99.6188 54.1386Z" fill="#1A1A1A"/>
<path fill-rule="evenodd" clip-rule="evenodd" d="M106.018 44.472C107.501 42.0298 109.235 40.0632 110.647 37.8918C107.207 34.8074 103.803 31.6949 100.409 28.7771C98.5495 30.5551 96.7337 32.5277 94.6964 34.6429C98.7909 38.0042 102.474 41.2853 106.018 44.47L106.018 44.472Z" fill="#1A1A1A"/>
<path fill-rule="evenodd" clip-rule="evenodd" d="M111.591 36.6637C113.016 34.6288 114.461 32.7806 115.576 30.838C112.659 28.143 109.622 25.3114 106.208 22.4478C104.6 23.997 103.029 25.6204 101.201 27.4326C104.57 30.4086 108.229 33.5793 111.591 36.6637Z" fill="#1A1A1A"/>
<path fill-rule="evenodd" clip-rule="evenodd" d="M116.189 30.1515C117.54 28.4498 118.677 26.8163 119.986 25.4156C117.315 22.9473 114.545 20.4007 111.943 17.9424C110.43 19.2247 108.758 20.5171 107.12 22.0502C110.263 24.7373 113.226 27.4545 116.191 30.1515L116.189 30.1515Z" fill="#1A1A1A"/>
<path fill-rule="evenodd" clip-rule="evenodd" d="M120.882 24.4144C121.856 22.9193 123.155 21.7132 124.271 20.5132C121.82 18.1593 119.242 15.7832 116.618 13.4434C115.481 14.6976 113.962 15.6729 112.58 16.8268C115.307 19.2871 118.189 21.948 120.88 24.4144L120.882 24.4144Z" fill="#1A1A1A"/>
<path fill-rule="evenodd" clip-rule="evenodd" d="M124.622 19.855C125.569 18.5526 126.833 17.7017 127.916 16.6341C125.821 14.6193 123.59 12.5343 121.463 10.6038C120.274 11.555 118.945 12.3958 117.572 13.355C119.929 15.5203 122.291 17.6696 124.622 19.855Z" fill="#1A1A1A"/>
<path fill-rule="evenodd" clip-rule="evenodd" d="M135.095 10.7201C136.132 10.2847 137.054 9.89937 138.006 9.56826C136.545 8.1856 135.252 6.96348 133.883 5.68115C132.774 5.88986 131.752 6.21295 130.453 6.31128C132.072 7.88057 133.596 9.28129 135.093 10.7221L135.095 10.7201Z" fill="#1A1A1A"/>
<path fill-rule="evenodd" clip-rule="evenodd" d="M138.341 9.21103C139.451 9.10066 140.211 8.76754 141.139 8.70733C140.049 7.66181 138.872 6.55608 137.725 5.50253C136.667 5.44834 135.562 5.55069 134.508 5.65705C135.791 6.829 137.096 7.99493 138.341 9.21103Z" fill="#1A1A1A"/>
<path fill-rule="evenodd" clip-rule="evenodd" d="M144.783 8.86994C145.473 8.95623 146.491 9.20909 147.255 9.39772C146.475 8.69134 145.595 7.92475 144.876 7.27055C143.797 6.7508 142.771 6.38757 141.734 6.07251C142.681 7.00365 143.723 7.88663 144.781 8.86793L144.783 8.86994Z" fill="#1A1A1A"/>
<path fill-rule="evenodd" clip-rule="evenodd" d="M149.998 10.652C150.668 11.0413 151.674 11.6433 152.674 12.454C152.109 12.0226 151.501 11.4828 151.066 11.262C149.902 10.2908 148.976 9.58036 147.929 8.81177C148.577 9.35761 149.332 10.06 149.998 10.654L149.998 10.652Z" fill="#1A1A1A"/>
<path fill-rule="evenodd" clip-rule="evenodd" d="M156.928 16.1264C157.744 16.8669 158.469 17.6515 159.117 18.38C158.505 17.9064 157.924 17.483 157.421 17.0114C156.593 16.1184 155.697 15.2213 154.981 14.4307C155.693 15.0688 156.232 15.5444 156.928 16.1284L156.928 16.1264Z" fill="#1A1A1A"/>
<path fill-rule="evenodd" clip-rule="evenodd" d="M152.796 14.1978C153.419 14.3222 154.089 14.6031 154.718 14.7275C153.838 13.981 152.954 13.1803 152.158 12.4318C151.429 12.1509 150.633 11.7575 149.847 11.4666C150.763 12.3275 151.743 13.2907 152.796 14.1978Z" fill="#1A1A1A"/>
<path fill-rule="evenodd" clip-rule="evenodd" d="M104.919 356.143C108.387 339.663 111.805 324.52 115.058 310.258C106.196 304.762 97.7338 299.151 88.6528 293.897C84.8037 307.732 79.8432 322.995 74.7909 339.896C85.2487 345.395 95.1418 350.725 104.919 356.145L104.919 356.143Z" fill="#1A1A1A"/>
<path fill-rule="evenodd" clip-rule="evenodd" d="M114.926 261.104C117.476 249.599 119.99 239.477 121.892 229.403C115.203 224.463 108.275 219.083 101.012 213.719C98.0269 223.548 94.8223 233.864 91.2765 244.952C99.2421 250.117 107.423 255.74 114.928 261.104L114.926 261.104Z" fill="#1A1A1A"/>
<path fill-rule="evenodd" clip-rule="evenodd" d="M166.983 247.569C167.35 238.406 167.905 229.833 168.344 221.561C163.264 216.907 158.309 212.352 153.161 207.973C152.433 215.996 151.507 224.517 150.182 233.581C155.984 238.105 161.603 242.62 166.983 247.569Z" fill="#1A1A1A"/>
<path fill-rule="evenodd" clip-rule="evenodd" d="M0.000137403 296.253C6.22771 284.508 12.1181 273.516 17.7949 263.166C11.9824 260.208 6.05411 257.244 0.000139236 254.314L0.000137403 296.251L0.000137403 296.253Z" fill="#1A1A1A"/>
<path fill-rule="evenodd" clip-rule="evenodd" d="M21.44 256.134C28.6094 242.648 35.5214 230.766 41.707 219.141C31.1595 213.042 19.8158 206.795 8.494 200.578C5.68052 204.383 2.85904 208.256 -0.000332388 212.228L-0.00033385 245.666C7.32669 249.208 14.4482 252.69 21.44 256.134Z" fill="#1A1A1A"/>
<path fill-rule="evenodd" clip-rule="evenodd" d="M44.4833 213.763C49.6473 203.237 54.4442 193.52 59.1992 184.594C50.4694 178.843 41.0991 172.716 31.4316 167.184C25.4095 175.879 19.2298 185.232 12.5732 195.517C23.7234 201.459 34.0814 207.662 44.4833 213.763Z" fill="#1A1A1A"/>
<path fill-rule="evenodd" clip-rule="evenodd" d="M60.5242 179.708C64.9699 171.013 68.8569 163.088 72.5703 155.575C65.2114 150.395 57.597 144.931 49.853 139.438C44.9403 146.653 39.5249 154.551 33.8281 162.869C43.4378 168.576 51.9381 174.081 60.5262 179.708L60.5242 179.708Z" fill="#1A1A1A"/>
<path fill-rule="evenodd" clip-rule="evenodd" d="M75.2779 150.941C78.4785 143.997 81.5993 137.441 84.7041 131.232C78.3568 126.278 71.6583 121.301 64.7763 116.318C60.7077 122.196 56.8207 128.347 52.9397 135.061C60.2986 140.265 67.8292 145.645 75.2759 150.941L75.2779 150.941Z" fill="#1A1A1A"/>
<path fill-rule="evenodd" clip-rule="evenodd" d="M86.5218 127.642C89.7104 121.999 92.063 116.597 94.3936 111.237C88.4593 106.573 82.3954 101.787 76.2676 96.8687C73.4241 101.938 70.1238 107.238 66.4583 112.58C73.2406 117.528 80.0388 122.698 86.5218 127.642Z" fill="#1A1A1A"/>
<path fill-rule="evenodd" clip-rule="evenodd" d="M95.0454 108.891C97.35 104.129 99.517 99.4272 101.435 94.8498C96.3224 90.7961 91.2282 86.5077 86.132 82.2754C83.56 86.4314 80.7904 90.8322 77.8213 95.2953C83.6558 99.8868 89.4942 104.522 95.0454 108.889L95.0454 108.891Z" fill="#1A1A1A"/>
<path fill-rule="evenodd" clip-rule="evenodd" d="M109.067 78.6391C110.44 74.8563 111.979 71.5532 113.493 68.2721C109.518 64.7422 105.344 61.0718 101.411 57.6904C99.4896 60.6705 97.4204 63.5682 95.5986 67.1242C100.082 70.8528 104.612 74.7058 109.069 78.6391L109.067 78.6391Z" fill="#1A1A1A"/>
<path fill-rule="evenodd" clip-rule="evenodd" d="M114.204 66.5284C115.712 63.3417 117.215 60.464 118.326 57.6324C114.76 54.3453 111.288 51.3031 107.433 47.9016C105.747 50.4944 104.119 53.1634 102.253 55.9227C106.302 59.5368 110.287 62.9323 114.204 66.5284Z" fill="#1A1A1A"/>
<path fill-rule="evenodd" clip-rule="evenodd" d="M118.88 56.2216C120.096 53.6389 121.357 51.295 122.41 48.8628C119.106 45.7744 115.863 42.706 112.591 39.9587C111.114 41.9635 109.7 44.3215 108.181 46.6453C111.831 49.9444 115.366 53.1011 118.88 56.2196L118.88 56.2216Z" fill="#1A1A1A"/>
<path fill-rule="evenodd" clip-rule="evenodd" d="M122.872 47.0908C123.929 44.7348 124.925 42.6217 126.066 40.5748C123.423 38.1266 120.316 35.2208 117.472 32.7344C116.189 34.5084 114.912 36.5231 113.466 38.56C116.66 41.3133 119.807 44.2713 122.872 47.0908Z" fill="#1A1A1A"/>
<path fill-rule="evenodd" clip-rule="evenodd" d="M126.643 39.443C127.517 37.4764 128.381 35.5158 129.261 33.79C126.715 31.3899 124.196 29.0821 121.708 26.696C120.567 28.2071 119.513 29.951 118.105 31.5966C121.038 34.1953 123.839 36.7178 126.641 39.443L126.643 39.443Z" fill="#1A1A1A"/>
<path fill-rule="evenodd" clip-rule="evenodd" d="M129.748 33.2863C130.564 31.5705 131.476 30.0855 132.214 28.446C130.087 26.369 127.746 24.1696 125.448 21.9541C124.422 23.3227 123.265 24.6452 122.085 26.1402C124.645 28.4681 127.15 30.8862 129.748 33.2863Z" fill="#1A1A1A"/>
<path fill-rule="evenodd" clip-rule="evenodd" d="M132.932 27.7375C133.896 26.4331 134.802 25.1387 135.482 23.8483C133.252 21.7212 131.224 19.7967 129.157 17.8582C128.068 18.8716 127.056 20.0014 125.978 21.1934C128.357 23.4089 130.624 25.6063 132.934 27.7375L132.932 27.7375Z" fill="#1A1A1A"/>
<path fill-rule="evenodd" clip-rule="evenodd" d="M135.969 23.0978C136.608 21.9239 137.278 20.8101 138.116 19.8609C136.211 18.0588 134.487 16.4133 132.423 14.4788C131.496 15.3136 130.59 16.1544 129.654 17.1076C131.665 19.0442 133.645 20.9666 135.969 23.0978Z" fill="#1A1A1A"/>
<path fill-rule="evenodd" clip-rule="evenodd" d="M142.977 202.814C144.031 195.144 144.931 187.835 146.04 180.741C140.734 176.317 135.618 171.86 130.293 167.168C128.868 173.929 127.523 181.125 125.631 188.791C131.566 193.499 137.278 198.218 142.977 202.816L142.977 202.814Z" fill="#1A1A1A"/>
<path fill-rule="evenodd" clip-rule="evenodd" d="M170.294 60.4818C170.278 58.3948 170.274 56.4161 170.242 54.5458C168.047 52.3544 165.906 50.0948 163.775 47.9817C163.807 49.8078 163.502 51.3912 163.43 53.3899C165.734 55.6977 168.033 58.0436 170.296 60.4838L170.294 60.4818Z" fill="#1A1A1A"/>
<path fill-rule="evenodd" clip-rule="evenodd" d="M177.111 60.1529C176.882 58.2605 176.708 56.4665 176.567 54.7286C174.571 52.6014 172.654 50.5686 170.77 48.5779C170.76 50.1773 170.78 51.8288 170.848 53.5326C172.879 55.6678 175.022 57.9374 177.111 60.1529Z" fill="#1A1A1A"/>
<path fill-rule="evenodd" clip-rule="evenodd" d="M-0.000135777 423.624C2.3564 418.031 4.67704 412.567 6.96973 407.237C4.68103 406.342 2.35641 405.463 -0.000134945 404.596L-0.000135777 423.626L-0.000135777 423.624Z" fill="#1A1A1A"/>
<path fill-rule="evenodd" clip-rule="evenodd" d="M193.049 198.698C192.704 192.084 192.4 185.802 192.117 179.82C188.461 176.132 184.754 172.481 181.214 168.717C181.178 174.701 181.262 180.689 181.35 187.131C185.309 190.867 189.18 194.823 193.049 198.696L193.049 198.698Z" fill="#1A1A1A"/>
<path fill-rule="evenodd" clip-rule="evenodd" d="M40.6398 327.133C47.5159 310.3 53.5958 294.864 59.2168 280.175C48.6493 274.451 37.2936 268.325 25.1278 262.738C17.5972 277.158 9.95094 292.263 1.7699 309.15C14.9893 314.86 28.0869 321.026 40.6398 327.131L40.6398 327.133Z" fill="#1A1A1A"/>
<path fill-rule="evenodd" clip-rule="evenodd" d="M78.1054 231.83C82.0602 221.18 85.5781 211.042 89.04 201.642C81.2162 196.167 72.9214 190.589 64.5348 185.162C59.9415 194.147 55.2763 204.042 50.5572 214.154C59.7958 220.046 69.3058 225.926 78.1034 231.828L78.1054 231.83Z" fill="#1A1A1A"/>
<path fill-rule="evenodd" clip-rule="evenodd" d="M100.29 167.2C102.778 159.841 105.051 153.126 107.392 146.733C101.689 142.097 95.4932 137.247 89.1239 132.593C86.1867 138.682 83.07 145.346 79.8494 152.075C86.925 156.939 93.859 162.179 100.29 167.202L100.29 167.2Z" fill="#1A1A1A"/>
<path fill-rule="evenodd" clip-rule="evenodd" d="M108.522 143.08C110.565 136.986 112.371 131.277 114.021 125.804C108.616 121.221 103.129 116.772 97.6714 112.188C95.4505 117.394 93.2197 122.698 90.4441 128.435C96.8173 133.406 102.955 138.168 108.522 143.08Z" fill="#1A1A1A"/>
<path fill-rule="evenodd" clip-rule="evenodd" d="M114.622 123.446C116.257 118.373 117.865 113.451 119.499 108.62C114.734 104.597 110.051 100.571 105.192 96.4573C103.203 100.906 100.97 105.604 98.8189 110.384C104.208 114.859 109.534 119.278 114.624 123.444L114.622 123.446Z" fill="#1A1A1A"/>
<path fill-rule="evenodd" clip-rule="evenodd" d="M120.467 105.43C121.77 101.101 123.023 96.8607 124.271 92.9876C119.767 88.942 115.577 85.101 111.073 81.3123C109.642 84.9445 108.02 88.8537 105.977 93.1341C111.103 97.1717 115.906 101.426 120.467 105.43Z" fill="#1A1A1A"/>
<path fill-rule="evenodd" clip-rule="evenodd" d="M124.673 91.0891C125.757 87.1538 126.998 83.6279 128.016 80.084C124.27 76.6123 120.244 73.0723 116.343 69.7732C114.944 72.974 113.39 76.2651 112.095 80.086C116.143 83.6339 120.527 87.4006 124.673 91.0871L124.673 91.0891Z" fill="#1A1A1A"/>
<path fill-rule="evenodd" clip-rule="evenodd" d="M128.622 78.1976C129.534 74.8061 130.324 71.6133 131.204 68.5992C127.738 65.4185 124.328 62.1454 120.934 59.1252C119.886 61.8845 118.651 64.9087 117.169 67.9109C121.098 71.2682 124.835 74.7238 128.622 78.1976Z" fill="#1A1A1A"/>
<path fill-rule="evenodd" clip-rule="evenodd" d="M131.639 67.2107C132.43 64.337 133.268 61.5877 134.186 58.9569C131.023 56.0169 127.87 53.0489 124.795 50.2776C123.686 52.5934 122.584 55.15 121.553 57.7749C124.873 60.9155 128.287 64.0199 131.639 67.2127L131.639 67.2107Z" fill="#1A1A1A"/>
<path fill-rule="evenodd" clip-rule="evenodd" d="M134.503 57.1527C135.273 54.6081 136.141 52.3485 136.827 50.1651C134.119 47.462 131.344 44.801 128.652 42.1702C127.453 44.1067 126.369 46.3262 125.4 48.7283C128.5 51.5598 131.49 54.3131 134.503 57.1547L134.503 57.1527Z" fill="#1A1A1A"/>
<path fill-rule="evenodd" clip-rule="evenodd" d="M136.959 48.5596C137.687 46.4445 138.3 44.3414 138.86 42.3025C136.53 40.073 133.984 37.6127 131.507 35.3511C130.753 37.1833 129.895 38.9713 129.057 40.9339C131.645 43.4022 134.247 45.9629 136.961 48.5596L136.959 48.5596Z" fill="#1A1A1A"/>
<path fill-rule="evenodd" clip-rule="evenodd" d="M139.285 41.7468C140.004 39.9869 140.668 38.241 141.259 36.4469C139.054 34.3157 136.588 32.014 134.361 29.9109C133.565 31.4962 132.717 33.0334 131.898 34.689C134.349 37.0048 136.759 39.4149 139.283 41.7488L139.285 41.7468Z" fill="#1A1A1A"/>
<path fill-rule="evenodd" clip-rule="evenodd" d="M141.755 35.63C142.358 34.0106 142.891 32.5577 143.348 31.0566C141.29 28.9756 139.279 26.9367 137.136 24.938C136.492 26.2785 135.711 27.5729 134.857 28.9274C137.124 31.1409 139.471 33.3383 141.755 35.628L141.755 35.63Z" fill="#1A1A1A"/>
<path fill-rule="evenodd" clip-rule="evenodd" d="M148.831 153.524C149.418 147.776 149.863 142.244 150.443 136.938C146.223 133.014 141.901 129.013 137.639 125.021C136.781 130.141 135.753 135.252 134.592 140.991C139.431 145.177 144.244 149.319 148.831 153.524Z" fill="#1A1A1A"/>
<path fill-rule="evenodd" clip-rule="evenodd" d="M150.827 134.528C151.455 129.525 151.88 124.636 152.465 120.245C148.522 116.4 144.489 112.598 140.54 109.028C139.698 113.374 138.848 117.859 138.074 122.704C142.211 126.549 146.62 130.602 150.827 134.528Z" fill="#1A1A1A"/>
<path fill-rule="evenodd" clip-rule="evenodd" d="M152.706 118.066C153.145 113.503 153.534 109.411 153.915 105.442C150.427 102.004 146.688 98.3979 143.106 94.9663C142.388 98.7832 141.661 102.73 140.781 106.886C144.856 110.503 148.879 114.318 152.706 118.066Z" fill="#1A1A1A"/>
<path fill-rule="evenodd" clip-rule="evenodd" d="M154.131 103.569C154.502 99.684 154.727 95.9956 155.053 92.4737C151.8 89.2488 148.203 85.8193 145.002 82.7068C144.437 86.0601 144.018 89.5759 143.452 93.1781C146.882 96.4672 150.621 100.134 154.131 103.571L154.131 103.569Z" fill="#1A1A1A"/>
<path fill-rule="evenodd" clip-rule="evenodd" d="M155.179 90.7499C155.556 87.3505 156.017 84.1737 156.143 80.985C153.163 77.9889 150.063 74.9205 146.858 71.8923C146.365 74.75 145.801 77.7922 145.192 81.0733C148.56 84.2299 151.932 87.5772 155.179 90.7499Z" fill="#1A1A1A"/>
<path fill-rule="evenodd" clip-rule="evenodd" d="M156.195 79.5081C156.478 76.5381 156.739 73.7989 156.923 71.0195C154.099 68.0957 151.194 65.1578 148.496 62.6172C148.009 65.0534 147.507 67.6622 147.146 70.5439C150.272 73.4758 153.225 76.3936 156.195 79.5061L156.195 79.5081Z" fill="#1A1A1A"/>
<path fill-rule="evenodd" clip-rule="evenodd" d="M157.017 69.7693C157.288 67.1063 157.461 64.5116 157.713 62.1878C155.099 59.5007 152.403 56.8558 149.799 54.241C149.286 56.4303 149.025 58.9408 148.678 61.2988C151.406 64.0561 154.193 66.7873 157.015 69.7693L157.017 69.7693Z" fill="#1A1A1A"/>
<path fill-rule="evenodd" clip-rule="evenodd" d="M157.671 60.8493C157.88 58.4873 158.09 56.2879 158.283 54.2029C155.921 51.9192 153.544 49.513 151.23 47.0889C150.894 49.0816 150.385 51.1947 149.937 53.2075C152.544 55.718 155.021 58.2164 157.671 60.8493Z" fill="#1A1A1A"/>
<path fill-rule="evenodd" clip-rule="evenodd" d="M158.421 52.9244C158.562 50.9056 158.798 49.1015 158.888 47.2533C156.799 45.0518 154.626 42.8404 152.421 40.6189C152.105 42.3246 151.724 43.9301 151.425 45.7482C153.746 48.1202 156.118 50.5825 158.423 52.9244L158.421 52.9244Z" fill="#1A1A1A"/>
<path fill-rule="evenodd" clip-rule="evenodd" d="M159.076 46.1937C159.285 44.4558 159.473 42.9307 159.614 41.3092C157.561 39.2041 155.572 37.087 153.435 35.012C153.089 36.4368 152.838 37.9699 152.435 39.5613C154.656 41.7326 156.893 43.9963 159.076 46.1957L159.076 46.1937Z" fill="#1A1A1A"/>
<path fill-rule="evenodd" clip-rule="evenodd" d="M159.652 40.6269C159.894 39.1619 160.203 37.9097 160.448 36.6093C158.547 34.7069 156.619 32.7443 154.833 30.9763C154.492 32.1242 154.163 33.4326 153.76 34.6407C155.729 36.6113 157.729 38.6763 159.652 40.6269Z" fill="#1A1A1A"/>
<path fill-rule="evenodd" clip-rule="evenodd" d="M160.616 35.7807C160.841 34.6408 160.909 33.4006 161.187 32.3692C159.411 30.5671 157.651 28.753 155.955 27.0894C155.641 28.0185 155.3 28.9516 155.007 30.0433C156.787 31.8614 158.63 33.8281 160.616 35.7827L160.616 35.7807Z" fill="#1A1A1A"/>
<path fill-rule="evenodd" clip-rule="evenodd" d="M159.546 22.821C159.845 22.4698 160.31 22.1748 160.642 21.924C159.375 20.7259 158.259 19.5279 157.138 18.5285C156.587 18.5105 156.1 18.7031 155.629 18.9459C156.928 20.2584 158.169 21.4644 159.546 22.819L159.546 22.821Z" fill="#1A1A1A"/>
<path fill-rule="evenodd" clip-rule="evenodd" d="M169.891 46.1858C170.497 49.0515 171.106 51.8669 171.744 55.0998C172.132 55.8604 172.309 56.5768 172.65 57.4919C171.812 54.0603 171.148 50.9378 170.436 47.9196C169.959 47.2133 170.178 46.7417 169.891 46.1858Z" fill="#1A1A1A"/>
<path fill-rule="evenodd" clip-rule="evenodd" d="M173.089 65.6956C173.441 69.7532 173.431 73.8591 173.634 78.3282C173.712 79.167 173.782 80.1142 174.079 81.0935C173.634 76.4257 173.734 72.1493 173.486 68.0234C173.125 67.0521 173.255 66.3116 173.087 65.6956L173.089 65.6956Z" fill="#1A1A1A"/>
<path fill-rule="evenodd" clip-rule="evenodd" d="M164.659 147.032C164.988 141.856 165.171 136.721 165.471 132.083C161.753 128.367 157.972 124.694 154.123 121.11C153.662 125.696 153.217 130.582 152.652 135.449C156.795 139.286 160.905 143.255 164.661 147.03L164.659 147.032Z" fill="#1A1A1A"/>
<path fill-rule="evenodd" clip-rule="evenodd" d="M165.6 129.828C165.674 125.196 165.768 120.799 165.945 116.671C162.509 113.322 158.912 109.638 155.482 106.393C155.098 110.298 154.801 114.54 154.444 118.921C158.189 122.469 161.975 126.208 165.598 129.828L165.6 129.828Z" fill="#1A1A1A"/>
<path fill-rule="evenodd" clip-rule="evenodd" d="M165.962 114.683C166.062 110.593 166.056 106.75 166.146 102.959C163.083 99.7402 159.824 96.5294 156.468 93.4109C156.274 96.9709 156.017 100.653 155.568 104.492C158.982 107.687 162.596 111.321 165.964 114.685L165.962 114.683Z" fill="#1A1A1A"/>
<path fill-rule="evenodd" clip-rule="evenodd" d="M166.254 101.193C166.328 97.583 166.264 94.2176 166.37 90.9506C163.411 87.8622 160.462 84.8581 157.535 81.9382C157.399 85.0146 157.012 88.2335 156.639 91.6811C159.843 94.8237 163.154 98.0325 166.254 101.193Z" fill="#1A1A1A"/>
<path fill-rule="evenodd" clip-rule="evenodd" d="M166.444 89.3754C166.383 86.1385 166.534 83.321 166.506 80.369C163.699 77.4592 160.997 74.6297 158.247 71.8884C158.002 74.6116 157.771 77.4532 157.583 80.4633C160.562 83.3812 163.38 86.3492 166.444 89.3754Z" fill="#1A1A1A"/>
<path fill-rule="evenodd" clip-rule="evenodd" d="M166.606 79.0183C166.637 76.1286 166.647 73.5097 166.741 70.8949C164.155 68.2139 161.599 65.6211 158.991 63.0164C158.54 65.3522 158.426 67.8868 158.243 70.5397C161.066 73.3853 163.794 76.0563 166.606 79.0203L166.606 79.0183Z" fill="#1A1A1A"/>
<path fill-rule="evenodd" clip-rule="evenodd" d="M166.712 69.6749C166.712 67.2347 166.602 64.7543 166.66 62.6392C164.371 60.1909 161.921 57.6825 159.574 55.2041C159.449 57.3333 159.271 59.5247 158.998 61.8385C161.59 64.3409 164.13 67.044 166.712 69.6749Z" fill="#1A1A1A"/>
<path fill-rule="evenodd" clip-rule="evenodd" d="M178.446 159.999C178.388 154.555 178.311 149.301 178.189 144.393C174.601 140.811 171.151 137.239 167.593 133.711C167.432 138.539 167.19 143.618 166.971 148.717C170.83 152.54 174.743 156.375 178.444 159.999L178.446 159.999Z" fill="#1A1A1A"/>
<path fill-rule="evenodd" clip-rule="evenodd" d="M178.027 142.101C178.011 137.309 177.802 132.671 177.66 128.357C174.366 124.965 171.071 121.55 167.799 118.261C167.841 122.457 167.773 126.954 167.564 131.485C171.203 134.949 174.613 138.489 178.027 142.101Z" fill="#1A1A1A"/>
<path fill-rule="evenodd" clip-rule="evenodd" d="M177.624 126.175C177.54 121.927 177.373 117.813 177.199 113.928C174.224 110.832 171.155 107.679 167.928 104.522C167.903 108.245 167.829 112.148 167.767 116.174C171.087 119.455 174.443 122.87 177.624 126.173L177.624 126.175Z" fill="#1A1A1A"/>
<path fill-rule="evenodd" clip-rule="evenodd" d="M177.18 112.144C176.96 108.279 176.892 104.942 176.693 101.416C173.786 98.2853 170.994 95.4437 168.089 92.4355C168.073 95.7949 168.109 99.2124 168.037 102.873C171.126 105.831 174.195 108.989 177.18 112.144Z" fill="#1A1A1A"/>
<path fill-rule="evenodd" clip-rule="evenodd" d="M176.541 99.6078C176.479 96.397 176.389 93.2524 176.206 90.1239C173.414 87.2261 170.764 84.4527 168.156 81.7637C168.015 84.5671 167.995 87.5833 168.067 90.8664C170.984 93.7701 173.718 96.6759 176.541 99.6078Z" fill="#1A1A1A"/>
<path fill-rule="evenodd" clip-rule="evenodd" d="M176.158 88.5866C175.949 85.5263 175.833 82.8352 175.729 80.2525C173.211 77.5173 170.671 74.7198 168.209 72.2134C168.167 74.77 168.083 77.443 168.157 80.3749C170.755 83.066 173.399 85.7912 176.158 88.5866Z" fill="#1A1A1A"/>
<path fill-rule="evenodd" clip-rule="evenodd" d="M175.426 78.6432C175.2 75.922 175.075 73.5139 174.929 71.0596C172.562 68.5572 170.122 65.9404 167.68 63.5222C167.857 65.832 167.889 68.2622 167.993 70.7987C170.356 73.3132 172.716 75.8137 175.424 78.6432L175.426 78.6432Z" fill="#1A1A1A"/>
<path fill-rule="evenodd" clip-rule="evenodd" d="M189.535 153.64C189.252 148.657 189.058 143.941 188.687 139.382C185.467 136.003 182.35 132.74 178.994 129.44C179.297 133.94 179.329 138.439 179.47 143.315C182.833 146.628 186.189 150.088 189.535 153.638L189.535 153.64Z" fill="#1A1A1A"/>
<path fill-rule="evenodd" clip-rule="evenodd" d="M188.365 137.1C188.162 132.637 187.779 128.535 187.344 124.398C184.452 121.253 181.505 118.207 178.504 115.088C178.839 119.108 178.849 123.021 178.985 127.368C182.186 130.643 185.442 133.934 188.365 137.1Z" fill="#1A1A1A"/>
<path fill-rule="evenodd" clip-rule="evenodd" d="M187.183 122.487C186.879 118.558 186.492 114.915 186.093 111.227C183.391 108.241 180.578 105.357 177.756 102.353C178.118 105.909 178.191 109.401 178.479 113.306C181.306 116.234 184.223 119.346 187.183 122.487Z" fill="#1A1A1A"/>
<path fill-rule="evenodd" clip-rule="evenodd" d="M185.963 109.431C185.654 105.955 185.466 102.682 185.157 99.4334C182.539 96.6279 179.951 93.9047 177.297 91.1213C177.459 94.2479 177.596 97.3323 177.752 100.794C180.537 103.752 183.245 106.493 185.963 109.431Z" fill="#1A1A1A"/>
<path fill-rule="evenodd" clip-rule="evenodd" d="M184.962 97.8178C184.768 94.8839 184.491 91.962 184.066 88.9559C181.658 86.317 179.147 83.6741 176.745 81.1074C176.877 83.8406 177.148 86.6742 177.222 89.588C179.878 92.4276 182.396 95.1588 184.962 97.8178Z" fill="#1A1A1A"/>
<path fill-rule="evenodd" clip-rule="evenodd" d="M182.191 79.9757C181.872 77.395 181.579 74.9226 181.379 72.653C179.238 70.3211 176.97 67.8327 174.717 65.4326C174.92 67.7143 174.974 70.0642 175.12 72.4081C177.456 74.7902 179.817 77.3648 182.189 79.9757L182.191 79.9757Z" fill="#1A1A1A"/>
<path fill-rule="evenodd" clip-rule="evenodd" d="M181.26 71.2603C181.066 69.0488 180.925 66.9397 180.667 64.8928C178.604 62.7496 176.676 60.5883 174.661 58.5273C174.687 60.3374 174.835 62.4044 174.897 64.3771C176.95 66.5805 179.187 68.9706 181.26 71.2603Z" fill="#1A1A1A"/>
<path fill-rule="evenodd" clip-rule="evenodd" d="M198.668 148.25C198.139 143.767 197.63 139.444 197.112 135.088C194.242 132.001 191.461 128.989 188.543 125.818C189.098 130.093 189.34 134.104 189.832 138.678C192.853 141.802 195.699 145.049 198.668 148.25Z" fill="#1A1A1A"/>
<path fill-rule="evenodd" clip-rule="evenodd" d="M196.902 133.085C196.467 129.093 195.903 125.084 195.426 121.273C192.76 118.445 190.068 115.499 187.309 112.547C187.722 116.28 188.011 119.884 188.346 123.912C191.309 127.076 194.065 130.099 196.904 133.085L196.902 133.085Z" fill="#1A1A1A"/>
<path fill-rule="evenodd" clip-rule="evenodd" d="M195.212 119.449C194.809 115.905 194.332 112.429 193.797 108.865C191.251 106.15 188.92 103.555 186.313 100.719C186.622 103.964 186.883 107.278 187.115 110.763C189.89 113.659 192.646 116.653 195.212 119.449Z" fill="#1A1A1A"/>
<path fill-rule="evenodd" clip-rule="evenodd" d="M193.556 107.314C193.075 104.167 192.66 101.023 192.257 98.0365C189.878 95.4417 187.492 92.7286 185.149 90.1499C185.452 93.1119 185.772 96.0277 186.119 99.1021C188.691 101.946 191.125 104.637 193.556 107.314Z" fill="#1A1A1A"/>
<path fill-rule="evenodd" clip-rule="evenodd" d="M190.209 88.4121C189.774 85.705 189.475 83.1985 189.171 80.8446C186.947 78.4124 184.756 75.9581 182.515 73.6523C182.756 75.9682 182.996 78.3381 183.331 80.967C185.604 83.4133 187.834 85.8495 190.207 88.4121L190.209 88.4121Z" fill="#1A1A1A"/>
<path fill-rule="evenodd" clip-rule="evenodd" d="M188.503 79.0986C188.184 76.7025 187.848 74.5673 187.445 72.39C185.43 70.1264 183.435 67.9049 181.288 65.5269C181.555 67.5697 181.723 69.7792 181.906 71.9886C184.117 74.3024 186.306 76.6544 188.505 79.1006L188.503 79.0986Z" fill="#1A1A1A"/>
<path fill-rule="evenodd" clip-rule="evenodd" d="M209.269 157.868C208.529 153.142 207.869 148.679 207.128 144.389C204.566 141.306 201.932 138.383 199.047 135.22C199.708 139.545 200.179 143.911 200.755 148.372C203.692 151.553 206.48 154.694 209.271 157.866L209.269 157.868Z" fill="#1A1A1A"/>
<path fill-rule="evenodd" clip-rule="evenodd" d="M206.915 142.352C206.189 138.128 205.622 134.094 204.938 130.137C202.398 127.396 199.947 124.524 197.285 121.614C197.84 125.453 198.327 129.416 198.936 133.424C201.601 136.36 204.199 139.294 206.915 142.352Z" fill="#1A1A1A"/>
<path fill-rule="evenodd" clip-rule="evenodd" d="M216.354 153.293C215.598 148.996 214.768 144.878 214.018 140.853C211.458 137.957 209.002 135.126 206.537 132.29C207.188 136.089 207.816 140.213 208.551 144.539C211.091 147.397 213.717 150.379 216.354 153.295L216.354 153.293Z" fill="#1A1A1A"/>
<path fill-rule="evenodd" clip-rule="evenodd" d="M213.667 200.026C212.815 193.846 212.023 188.09 211.454 182.616C208.319 178.973 205.103 175.638 202.086 172.411C202.531 177.725 203.169 183.384 203.814 189.385C207.068 192.798 210.367 196.348 213.665 200.024L213.667 200.026Z" fill="#1A1A1A"/>
<path fill-rule="evenodd" clip-rule="evenodd" d="M152.844 33.2322C153.205 31.9197 153.588 30.7177 153.897 29.5698C152.138 27.7878 150.342 25.9456 148.366 24.1997C147.905 25.0867 147.351 26.1322 146.848 27.2359C148.769 29.1424 150.87 31.1933 152.844 33.2322Z" fill="#1A1A1A"/>
<path fill-rule="evenodd" clip-rule="evenodd" d="M151.602 38.1485C151.964 36.6093 152.357 35.1825 152.712 33.8119C150.597 31.7188 148.564 29.7201 146.632 27.8157C146.025 28.9234 145.459 30.1435 144.878 31.476C147.125 33.6433 149.424 35.9029 151.602 38.1485Z" fill="#1A1A1A"/>
<path fill-rule="evenodd" clip-rule="evenodd" d="M150.308 43.8618C150.621 42.0959 151.056 40.4905 151.497 38.9433C149.125 36.5953 146.878 34.3357 144.683 32.2246C144.216 33.6695 143.667 35.1224 143.232 36.8462C145.599 39.164 147.977 41.5741 150.308 43.8639L150.308 43.8618Z" fill="#1A1A1A"/>
<path fill-rule="evenodd" clip-rule="evenodd" d="M148.853 51.1565C149.298 49.0916 149.769 47.0868 150.084 45.0961C147.763 42.7542 145.161 40.2999 142.705 37.9299C142.218 39.722 141.506 41.4699 140.8 43.278C143.565 45.8506 146.193 48.5678 148.855 51.1565L148.853 51.1565Z" fill="#1A1A1A"/>
<path fill-rule="evenodd" clip-rule="evenodd" d="M147.544 59.0812C147.905 56.6671 148.267 54.265 148.728 52.2421C146.11 49.6012 143.448 46.8861 140.704 44.2612C140.04 46.3021 139.463 48.4554 138.834 50.6789C141.684 53.3398 144.563 56.1413 147.544 59.0812Z" fill="#1A1A1A"/>
<path fill-rule="evenodd" clip-rule="evenodd" d="M145.82 68.1196C146.249 65.3402 146.732 62.7876 147.245 60.3514C144.16 57.3092 141.197 54.4596 138.39 51.7986C137.751 54.0341 136.955 56.4543 136.207 58.9387C139.501 62.0592 142.528 64.9449 145.822 68.1196L145.82 68.1196Z" fill="#1A1A1A"/>
<path fill-rule="evenodd" clip-rule="evenodd" d="M143.679 78.3241C144.218 75.1635 144.827 72.2276 145.407 69.3639C142.155 66.3016 139.024 63.2553 135.788 60.189C134.933 62.8138 134.101 65.6173 133.263 68.489C136.799 71.7359 140.343 75.1173 143.679 78.3241Z" fill="#1A1A1A"/>
<path fill-rule="evenodd" clip-rule="evenodd" d="M141.809 91.2337C142.531 87.6055 143.072 84.1318 143.543 80.9009C140.243 77.5857 136.631 74.2224 133.105 70.9272C132.377 73.9836 131.593 77.2827 130.507 80.5738C134.482 84.198 138.173 87.6476 141.809 91.2357L141.809 91.2337Z" fill="#1A1A1A"/>
<path fill-rule="evenodd" clip-rule="evenodd" d="M139.463 104.508C140.259 100.421 141.159 96.395 141.855 92.8631C138.058 89.2429 134.315 85.5786 130.434 82.1189C129.37 85.6046 128.209 89.2931 127.259 93.3187C131.356 97.0071 135.331 100.726 139.461 104.508L139.463 104.508Z" fill="#1A1A1A"/>
<path fill-rule="evenodd" clip-rule="evenodd" d="M136.65 120.287C137.472 115.554 138.184 110.858 139.352 106.802C135.145 102.983 130.903 99.08 126.773 95.4578C125.609 99.4833 124.426 103.712 123.301 108.189C127.888 112.282 132.23 116.202 136.65 120.289L136.65 120.287Z" fill="#1A1A1A"/>
<path fill-rule="evenodd" clip-rule="evenodd" d="M132.874 138.166C134.022 132.603 135.047 127.488 136.137 122.68C131.607 118.552 127.082 114.382 122.363 110.308C120.976 115.325 119.246 119.952 117.891 125.262C122.929 129.649 127.946 133.986 132.874 138.166Z" fill="#1A1A1A"/>
<path fill-rule="evenodd" clip-rule="evenodd" d="M128.151 158.829C129.424 152.324 130.628 146.558 131.891 140.745C126.916 136.406 121.852 132.077 116.901 127.743C115.11 133.171 113.356 138.92 111.56 144.953C117.368 149.725 122.83 154.26 128.151 158.829Z" fill="#1A1A1A"/>
<path fill-rule="evenodd" clip-rule="evenodd" d="M156.907 373.907C160.175 369.811 163.473 365.801 166.484 362.137C163.138 356.217 160.021 350.323 156.488 344.371C153.026 347.692 149.396 350.981 145.683 354.957C149.47 361.374 153.235 367.788 156.907 373.905L156.907 373.907Z" fill="#1A1A1A"/>
<path fill-rule="evenodd" clip-rule="evenodd" d="M163.615 172.997C165.254 171.368 166.778 169.776 168.083 168.121C166.471 165.815 164.753 163.413 163.119 161.041C161.568 162.514 159.902 163.905 158.028 165.4C159.934 167.952 161.826 170.499 163.615 172.999L163.615 172.997Z" fill="#1A1A1A"/>
<path fill-rule="evenodd" clip-rule="evenodd" d="M224.137 108.512C225.103 107.878 226.109 107.296 227.116 106.76C225.402 104.685 223.546 102.47 221.739 100.294C220.579 100.633 219.52 101.113 218.384 101.655C220.294 103.93 222.236 106.244 224.137 108.51L224.137 108.512Z" fill="#1A1A1A"/>
<path fill-rule="evenodd" clip-rule="evenodd" d="M56.5966 445.372C60.5974 440.252 64.4305 435.424 67.8047 430.734C65.929 424.628 63.7082 418.636 61.5891 412.348C57.9016 416.908 53.9169 421.395 49.6228 426.006C52.0851 432.565 54.304 439.273 56.5986 445.374L56.5966 445.372Z" fill="#1A1A1A"/>
<path fill-rule="evenodd" clip-rule="evenodd" d="M211.159 123.125C211.712 122.621 212.251 122.224 212.77 121.829C211.792 120.48 210.832 119.124 209.874 117.813C209.282 118.116 208.585 118.429 208.003 118.78C209.05 120.231 210.09 121.628 211.161 123.125L211.159 123.125Z" fill="#1A1A1A"/>
<path fill-rule="evenodd" clip-rule="evenodd" d="M236.446 169.594C236.963 168.378 237.42 167.226 237.841 166.086C236.674 164.366 235.466 162.648 234.193 160.89C233.617 161.85 233.104 162.903 232.441 164.101C233.836 165.891 235.139 167.743 236.444 169.594L236.446 169.594Z" fill="#1A1A1A"/>
<path fill-rule="evenodd" clip-rule="evenodd" d="M189.094 428.238C191.073 423.418 192.801 418.937 194.43 414.678C192.151 409.172 189.968 403.958 187.653 398.969C185.736 402.816 183.772 406.868 181.358 411.401C184.066 417.221 186.751 422.876 189.094 428.238Z" fill="#1A1A1A"/>
<path fill-rule="evenodd" clip-rule="evenodd" d="M239.531 149.881C239.876 149.147 240.329 148.597 240.67 148.015C239.756 146.614 238.724 145.28 237.729 143.931C237.292 144.425 236.775 144.881 236.376 145.477C237.399 146.819 238.483 148.348 239.531 149.881Z" fill="#1A1A1A"/>
<path fill-rule="evenodd" clip-rule="evenodd" d="M247.07 119.238C247.353 118.849 247.571 118.423 247.832 118.04C247.052 117.031 246.246 115.925 245.501 114.956C245.198 115.291 244.891 115.582 244.54 115.881C245.372 116.986 246.22 118.134 247.07 119.238Z" fill="#1A1A1A"/>
<path fill-rule="evenodd" clip-rule="evenodd" d="M170.235 45.2503C170.654 45.0857 171.073 44.869 171.477 44.7566C170.926 43.9499 170.297 43.1973 169.723 42.3906C169.236 42.4528 168.775 42.5652 168.314 42.6776C168.958 43.5867 169.597 44.3954 170.235 45.2503Z" fill="#1A1A1A"/>
<path fill-rule="evenodd" clip-rule="evenodd" d="M124.139 449.074C125.777 445.642 127.323 442.865 128.804 439.935C127.589 435.633 126.489 431.513 125.3 427.407C123.781 429.925 122.011 432.777 120.335 435.795C121.557 440.292 122.885 444.697 124.139 449.074Z" fill="#1A1A1A"/>
<path fill-rule="evenodd" clip-rule="evenodd" d="M244.372 196.545C244.727 195.341 244.971 194.111 245.334 193.069C244.243 191.393 243.109 189.623 242.058 188.038C241.615 189.047 241.237 189.993 240.822 191.108C241.966 192.776 243.227 194.727 244.372 196.545Z" fill="#1A1A1A"/>
<path fill-rule="evenodd" clip-rule="evenodd" d="M271.353 152.175C271.495 151.41 271.616 150.646 271.654 149.895C270.856 148.635 269.944 147.435 269.07 146.229C268.947 146.943 268.811 147.662 268.653 148.382C269.595 149.671 270.491 150.923 271.353 152.175Z" fill="#1A1A1A"/>
<path fill-rule="evenodd" clip-rule="evenodd" d="M238.299 133.139C238.519 132.444 238.675 131.76 238.87 131.12C238.096 130.042 237.246 128.822 236.48 127.69C236.252 128.335 236.041 128.929 235.809 129.577C236.655 130.797 237.451 131.923 238.299 133.141L238.299 133.139Z" fill="#1A1A1A"/>
<path fill-rule="evenodd" clip-rule="evenodd" d="M148.873 16.024C149.192 15.8273 149.443 15.6809 149.763 15.4822C149.328 14.846 148.889 14.2119 148.48 13.6279C148.15 13.7704 147.841 13.8627 147.574 14.0614C147.987 14.6995 148.432 15.3899 148.873 16.024Z" fill="#1A1A1A"/>
<path fill-rule="evenodd" clip-rule="evenodd" d="M220.497 116.778C220.724 116.083 220.986 115.433 221.153 114.795C220.465 113.78 219.727 112.664 219.04 111.592C218.813 112.236 218.573 112.881 218.302 113.481C219.026 114.546 219.755 115.664 220.497 116.778Z" fill="#1A1A1A"/>
<path fill-rule="evenodd" clip-rule="evenodd" d="M210.975 224.802C211.368 223.295 211.769 221.85 212.141 220.461C211.157 218.633 210.221 216.853 209.191 214.925C208.866 216.351 208.421 217.752 208.008 219.151C209.022 220.969 210.028 222.96 210.975 224.802Z" fill="#1A1A1A"/>
<path fill-rule="evenodd" clip-rule="evenodd" d="M155.771 11.1576C156.096 10.9709 156.377 10.7281 156.629 10.5395C156.232 9.91537 155.817 9.33942 155.352 8.76147C155.075 8.9481 154.785 9.13875 154.462 9.32538C154.907 9.9555 155.352 10.5836 155.771 11.1576Z" fill="#1A1A1A"/>
<path fill-rule="evenodd" clip-rule="evenodd" d="M204.916 99.9649C205.141 99.3208 205.438 98.6706 205.676 98.0786C205.011 97.0812 204.403 96.1822 203.754 95.231C203.503 95.7728 203.219 96.3186 202.916 96.9166C203.607 97.916 204.209 98.9194 204.918 99.9649L204.916 99.9649Z" fill="#1A1A1A"/>
<path fill-rule="evenodd" clip-rule="evenodd" d="M231.328 108.141C231.474 107.577 231.53 107.025 231.634 106.465C231.075 105.644 230.451 104.783 229.926 103.957C229.826 104.418 229.682 104.98 229.523 105.45C230.151 106.361 230.758 107.226 231.326 108.141L231.328 108.141Z" fill="#1A1A1A"/>
<path fill-rule="evenodd" clip-rule="evenodd" d="M87.374 522C88.7508 517.421 90.385 512.578 91.8037 507.684C90.834 503.15 90.1436 498.254 89.2955 493.65C87.9506 498.051 86.3743 502.817 84.8119 507.22C85.6759 512.364 86.4721 517.122 87.372 522L87.374 522Z" fill="#1A1A1A"/>
<path fill-rule="evenodd" clip-rule="evenodd" d="M263.126 170.065C263.086 169.056 263.076 168.147 263.068 167.238C262.392 166.172 261.685 165.06 260.929 163.913C260.971 164.818 260.895 165.646 260.903 166.56C261.657 167.707 262.42 168.857 263.126 170.063L263.126 170.065Z" fill="#1A1A1A"/>
<path fill-rule="evenodd" clip-rule="evenodd" d="M151.784 23.722C152.014 23.413 152.251 23.104 152.471 22.9013C152.104 22.3253 151.685 21.6952 151.349 21.1694C151.104 21.3721 150.894 21.627 150.631 21.8818C151.056 22.512 151.411 23.0919 151.782 23.722L151.784 23.722Z" fill="#1A1A1A"/>
<path fill-rule="evenodd" clip-rule="evenodd" d="M176.242 295.831C176.797 293.552 177.128 291.109 177.631 288.784C176.835 286.492 176.138 284.407 175.32 282.358C174.933 284.469 174.388 286.755 173.844 289.141C174.666 291.37 175.456 293.66 176.242 295.829L176.242 295.831Z" fill="#1A1A1A"/>
<path fill-rule="evenodd" clip-rule="evenodd" d="M134.902 288.049C136.185 285.992 137.462 283.957 138.573 281.911C137.474 279.045 136.181 276.123 134.934 273.181C133.667 275.086 132.431 276.978 130.991 278.89C132.435 282.079 133.647 285.099 134.904 288.049L134.902 288.049Z" fill="#1A1A1A"/>
<path fill-rule="evenodd" clip-rule="evenodd" d="M141.323 17.2241C141.888 17.0274 142.464 16.8849 142.957 16.7404C142.38 15.9357 141.742 15.0748 141.077 14.2119C140.501 14.2982 139.846 14.3865 139.256 14.523C139.936 15.3899 140.628 16.307 141.325 17.2241L141.323 17.2241Z" fill="#1A1A1A"/>
<path fill-rule="evenodd" clip-rule="evenodd" d="M185.951 238.243C187.008 236.389 187.952 234.679 188.872 233.092C187.521 230.652 186.087 228.109 184.626 225.569C183.646 227.166 182.469 228.593 181.457 230.373C182.972 233.074 184.478 235.653 185.951 238.243Z" fill="#1A1A1A"/>
</svg>
