<svg width="94" height="28" fill="none" xmlns="http://www.w3.org/2000/svg"><path d="M14 28C6.269 28 0 21.731 0 14h14v14ZM0 0c7.731 0 14 6.269 14 14H0V0ZM14 28c7.731 0 14-6.269 14-14H14v14ZM28 14c0-7.731-6.269-14-14-14v14h14Z" fill="#703BF7"/><path d="M91.478 20.335v-4.67c0-.54-.174-.984-.523-1.332-.337-.349-.775-.523-1.315-.523-.36 0-.68.079-.96.236a1.68 1.68 0 0 0-.659.658 1.933 1.933 0 0 0-.236.96l-.725-.404c0-.618.135-1.163.405-1.636.27-.483.64-.86 1.113-1.13a3.16 3.16 0 0 1 1.619-.42c.607 0 1.146.156 1.618.471.472.304.843.703 1.113 1.197.27.484.405.99.405 1.518v5.075h-1.855Zm-5.547 0v-8.093h1.854v8.093h-1.854ZM81.996 20.335v-8.093h1.855v8.093h-1.855Zm.927-9.577c-.315 0-.579-.107-.792-.32a1.108 1.108 0 0 1-.304-.793c0-.315.101-.579.304-.792.213-.214.477-.32.792-.32.326 0 .59.106.793.32.202.213.303.477.303.792 0 .315-.101.579-.303.793-.203.213-.467.32-.793.32ZM76.732 20.504c-.81 0-1.54-.18-2.192-.54a4.226 4.226 0 0 1-1.534-1.517c-.371-.641-.557-1.36-.557-2.159 0-.798.186-1.511.557-2.14a4.135 4.135 0 0 1 1.5-1.518 4.164 4.164 0 0 1 2.125-.557c.753 0 1.416.174 1.99.523.584.348 1.04.826 1.365 1.433.337.607.506 1.298.506 2.074 0 .135-.011.275-.034.421a4.067 4.067 0 0 1-.067.456h-6.644v-1.518h5.683l-.692.607c-.022-.494-.117-.91-.286-1.247a1.794 1.794 0 0 0-.725-.776c-.304-.18-.68-.27-1.13-.27-.472 0-.882.101-1.23.304a2.063 2.063 0 0 0-.81.86c-.191.36-.287.792-.287 1.298s.101.95.304 1.332c.202.382.489.68.86.894.37.202.798.303 1.281.303.416 0 .798-.073 1.147-.22.36-.145.663-.359.91-.64l1.18 1.197c-.393.461-.87.81-1.433 1.046a4.568 4.568 0 0 1-1.787.354ZM68.061 20.335V8.87h1.855v11.466H68.06Zm-1.939-6.407v-1.686h5.733v1.686h-5.733ZM60.439 20.504c-.73 0-1.394-.186-1.99-.557a4.088 4.088 0 0 1-1.4-1.5c-.336-.641-.505-1.355-.505-2.142 0-.798.169-1.512.506-2.141a4.052 4.052 0 0 1 1.4-1.518 3.608 3.608 0 0 1 1.989-.573c.618 0 1.163.135 1.636.405.483.258.865.618 1.146 1.079.281.46.422.983.422 1.568v2.327c0 .584-.14 1.107-.422 1.568-.27.46-.646.826-1.13 1.096-.483.259-1.034.388-1.652.388Zm.303-1.754c.686 0 1.237-.23 1.653-.691.427-.461.64-1.051.64-1.77 0-.484-.095-.911-.286-1.282a2.062 2.062 0 0 0-.81-.86c-.337-.213-.736-.32-1.197-.32-.45 0-.848.107-1.197.32a2.214 2.214 0 0 0-.81.86c-.19.371-.286.798-.286 1.281 0 .484.096.911.287 1.282.202.37.472.663.81.877a2.34 2.34 0 0 0 1.196.303Zm2.176 1.585V18.16l.32-1.973-.32-1.956v-1.99h1.854v8.094h-1.854ZM52.138 20.335V8.87h1.855v11.466h-1.855ZM50.2 13.928v-1.686h5.733v1.686H50.2ZM46.31 20.504c-.45 0-.883-.056-1.299-.169a4.802 4.802 0 0 1-1.146-.506 3.92 3.92 0 0 1-.91-.809l1.18-1.18c.28.326.6.573.96.742.371.157.787.236 1.248.236.416 0 .73-.062.944-.186a.59.59 0 0 0 .32-.54.65.65 0 0 0-.303-.573 2.753 2.753 0 0 0-.792-.337 29.016 29.016 0 0 0-1.012-.303 5.585 5.585 0 0 1-1.011-.405 2.279 2.279 0 0 1-.776-.725c-.203-.304-.304-.697-.304-1.18 0-.518.118-.962.354-1.332.248-.371.59-.658 1.029-.86.45-.203.984-.304 1.602-.304.652 0 1.225.118 1.72.354.506.225.927.568 1.264 1.029l-1.18 1.18a2.35 2.35 0 0 0-.81-.657 2.38 2.38 0 0 0-1.045-.22c-.37 0-.657.056-.86.169-.202.112-.303.275-.303.489 0 .225.101.399.303.523.203.123.461.23.776.32.326.09.663.191 1.012.303.36.102.697.248 1.011.439.326.18.59.427.793.742.202.303.303.702.303 1.197 0 .787-.275 1.41-.826 1.872-.55.46-1.298.69-2.242.69ZM33.97 20.335V8.532h1.939v11.803h-1.94Zm1.332 0v-1.77h6.61v1.77h-6.61Zm0-5.176v-1.703h6.036v1.703h-6.036Zm0-4.856v-1.77h6.525v1.77h-6.525Z" fill="#fff"/></svg>